<svg width="1200" height="520" viewBox="0 0 1200 520" fill="none" xmlns="http://www.w3.org/2000/svg">
  
  <defs>
    <linearGradient id="identityPanel_bg" x1="0" y1="0" x2="1200" y2="520" gradientUnits="userSpaceOnUse">
      <stop offset="0" stop-color="#050008"/>
      <stop offset="0.45" stop-color="#14001f"/>
      <stop offset="0.78" stop-color="#2b003d"/>
      <stop offset="1" stop-color="#b026ff"/>
    </linearGradient>

    <radialGradient id="identityPanel_wheelGlow" cx="50%" cy="50%" r="50%">
      <stop offset="0" stop-color="#d86cff" stop-opacity="0.18"/>
      <stop offset="0.55" stop-color="#d86cff" stop-opacity="0.08"/>
      <stop offset="1" stop-color="#d86cff" stop-opacity="0"/>
    </radialGradient>

    <radialGradient id="identityPanel_wheelGlow2" cx="50%" cy="50%" r="50%">
      <stop offset="0" stop-color="#b026ff" stop-opacity="0.15"/>
      <stop offset="0.65" stop-color="#b026ff" stop-opacity="0.06"/>
      <stop offset="1" stop-color="#b026ff" stop-opacity="0"/>
    </radialGradient>

    <pattern id="identityPanel_grid" width="38" height="38" patternUnits="userSpaceOnUse">
      <path d="M 38 0 L 0 0 0 38" fill="none" stroke="#4f1266" stroke-width="1" opacity="0.45"/>
    </pattern>

    <linearGradient id="identityPanel_scanLine" x1="0" y1="0" x2="1200" y2="0" gradientUnits="userSpaceOnUse">
      <stop offset="0" stop-color="#d86cff" stop-opacity="0"/>
      <stop offset="0.5" stop-color="#d86cff" stop-opacity="0.95"/>
      <stop offset="1" stop-color="#d86cff" stop-opacity="0"/>
    </linearGradient>

    <filter id="identityPanel_glow" x="-50%" y="-50%" width="200%" height="200%">
      <feGaussianBlur stdDeviation="4" result="blur"/>
      <feMerge>
        <feMergeNode in="blur"/>
        <feMergeNode in="SourceGraphic"/>
      </feMerge>
    </filter>

    <filter id="identityPanel_softGlow" x="-50%" y="-50%" width="200%" height="200%">
      <feGaussianBlur stdDeviation="10" result="blur"/>
      <feMerge>
        <feMergeNode in="blur"/>
        <feMergeNode in="SourceGraphic"/>
      </feMerge>
    </filter>
  </defs>

  <style>
    .identityPanel_scan {
      animation: identityPanel_scanMove 4.8s linear infinite;
    }

    .identityPanel_pulse {
      animation: identityPanel_pulse 2.8s ease-in-out infinite alternate;
    }

    .identityPanel_pulseSlow {
      animation: identityPanel_pulseSlow 5.2s ease-in-out infinite alternate;
    }

    .identityPanel_spinCW {
      transform-origin: 936px 218px;
      animation: identityPanel_spinCW 16s linear infinite;
    }

    .identityPanel_spinCCW {
      transform-origin: 936px 218px;
      animation: identityPanel_spinCCW 22s linear infinite;
    }

    .identityPanel_spinLeft {
      transform-origin: 216px 364px;
      animation: identityPanel_spinLeft 18s linear infinite;
    }

    .identityPanel_dash {
      stroke-dasharray: 14 12;
      animation: identityPanel_dashMove 4s linear infinite;
    }

    .identityPanel_float {
      animation: identityPanel_float 6s ease-in-out infinite alternate;
    }

    @keyframes identityPanel_scanMove {
      0%   { transform: translateY(-60px); opacity: 0; }
      12%  { opacity: 0.9; }
      50%  { opacity: 0.5; }
      100% { transform: translateY(600px); opacity: 0; }
    }

    @keyframes identityPanel_pulse {
      0%   { opacity: 0.45; }
      100% { opacity: 1; }
    }

    @keyframes identityPanel_pulseSlow {
      0%   { opacity: 0.18; }
      100% { opacity: 0.52; }
    }

    @keyframes identityPanel_spinCW {
      from { transform: rotate(0deg); }
      to   { transform: rotate(360deg); }
    }

    @keyframes identityPanel_spinCCW {
      from { transform: rotate(360deg); }
      to   { transform: rotate(0deg); }
    }

    @keyframes identityPanel_spinLeft {
      from { transform: rotate(0deg); }
      to   { transform: rotate(-360deg); }
    }

    @keyframes identityPanel_dashMove {
      to { stroke-dashoffset: -120; }
    }

    @keyframes identityPanel_float {
      0%   { transform: translateX(-12px); opacity: 0.55; }
      100% { transform: translateX(12px); opacity: 0.95; }
    }
  </style>

  <rect width="1200" height="520" fill="url(#identityPanel_bg)"/>
  <rect width="1200" height="520" fill="url(#identityPanel_grid)" opacity="0.72"/>

  <rect class="identityPanel_scan" x="0" y="0" width="1200" height="22" fill="url(#identityPanel_scanLine)" opacity="0.75"/>

  <!-- ambient glow fields -->
  <circle class="identityPanel_pulseSlow" cx="936" cy="218" r="187" fill="url(#identityPanel_wheelGlow)"/>
  <circle class="identityPanel_pulseSlow" cx="216" cy="364" r="72" fill="url(#identityPanel_wheelGlow2)"/>

  <!-- main wheel -->
  <g class="identityPanel_spinCW" opacity="0.18">
    <circle cx="936" cy="218" r="93" fill="none" stroke="#d86cff" stroke-width="2" filter="url(#identityPanel_glow)"/>
    <circle cx="936" cy="218" r="140" fill="none" stroke="#b026ff" stroke-width="2" filter="url(#identityPanel_glow)"/>
    <circle cx="936" cy="218" r="187" fill="none" stroke="#d86cff" stroke-width="1.5" opacity="0.7" filter="url(#identityPanel_softGlow)"/>

    <line x1="749" y1="218" x2="1123" y2="218" stroke="#d86cff" stroke-width="1.5" opacity="0.6"/>
    <line x1="936" y1="31" x2="936" y2="405" stroke="#b026ff" stroke-width="1.5" opacity="0.6"/>
    <line x1="796" y1="78" x2="1076" y2="358" stroke="#d86cff" stroke-width="1.2" opacity="0.45"/>
    <line x1="796" y1="358" x2="1076" y2="78" stroke="#b026ff" stroke-width="1.2" opacity="0.45"/>
  </g>

  <!-- counter-rotating wheel segments -->
  <g class="identityPanel_spinCCW" opacity="0.18">
    <path d="M 796 218 A 140 140 0 0 1 936 78" fill="none" stroke="#d86cff" stroke-width="3" filter="url(#identityPanel_glow)"/>
    <path d="M 936 78 A 140 140 0 0 1 1076 218" fill="none" stroke="#b026ff" stroke-width="3" filter="url(#identityPanel_glow)"/>
    <path d="M 1076 218 A 140 140 0 0 1 936 358" fill="none" stroke="#d86cff" stroke-width="3" filter="url(#identityPanel_glow)"/>
    <path d="M 936 358 A 140 140 0 0 1 796 218" fill="none" stroke="#b026ff" stroke-width="3" filter="url(#identityPanel_glow)"/>
  </g>

  <!-- secondary left wheel -->
  <g class="identityPanel_spinLeft" opacity="0.18">
    <circle cx="216" cy="364" r="72" fill="none" stroke="#b026ff" stroke-width="1.8" filter="url(#identityPanel_glow)"/>
    <circle cx="216" cy="364" r="44" fill="none" stroke="#d86cff" stroke-width="1.3" filter="url(#identityPanel_glow)"/>
    <line x1="144" y1="364" x2="288" y2="364" stroke="#b026ff" stroke-width="1"/>
    <line x1="216" y1="292" x2="216" y2="436" stroke="#d86cff" stroke-width="1"/>
  </g>

  <!-- horizon / laser terrain -->
  <path class="identityPanel_pulse" d="M0 416 C 180 364 264 457 432 405 C 660 338 804 447 983 395 C 1104 364 1164 390 1200 353 V 520 H 0 Z"
        fill="#d86cff" opacity="0.10"/>

  <path class="identityPanel_dash" d="M0 436 C 216 374 312 478 480 421 C 696 348 864 462 1056 410 C 1140 384 1176 374 1200 364"
        fill="none" stroke="#d86cff" stroke-width="2.4" opacity="0.95" filter="url(#identityPanel_glow)"/>

  <line class="identityPanel_float" x1="96" y1="93" x2="1104" y2="93" stroke="#d86cff" stroke-width="1.8" opacity="0.65" filter="url(#identityPanel_glow)"/>
  <line class="identityPanel_float" x1="192" y1="374" x2="1008" y2="374" stroke="#b026ff" stroke-width="1.6" opacity="0.55"/>


  <defs>
    <filter id="violetGlow" x="-50%" y="-50%" width="200%" height="200%">
      <feGaussianBlur stdDeviation="4" result="blur"/>
      <feMerge>
        <feMergeNode in="blur"/>
        <feMergeNode in="SourceGraphic"/>
      </feMerge>
    </filter>

    <filter id="softVioletGlow" x="-50%" y="-50%" width="200%" height="200%">
      <feGaussianBlur stdDeviation="8" result="blur"/>
      <feMerge>
        <feMergeNode in="blur"/>
        <feMergeNode in="SourceGraphic"/>
      </feMerge>
    </filter>

    <linearGradient id="panelBorder" x1="0" y1="0" x2="1200" y2="520" gradientUnits="userSpaceOnUse">
      <stop offset="0" stop-color="#d86cff"/>
      <stop offset="0.45" stop-color="#b026ff"/>
      <stop offset="1" stop-color="#4f1266"/>
    </linearGradient>

    <linearGradient id="titleGrad" x1="250" y1="0" x2="950" y2="0" gradientUnits="userSpaceOnUse">
      <stop offset="0" stop-color="#ffffff"/>
      <stop offset="0.35" stop-color="#d86cff"/>
      <stop offset="0.72" stop-color="#b026ff"/>
      <stop offset="1" stop-color="#ffffff"/>
    </linearGradient>
  </defs>

  <style>
    .panelPulse {
      animation: panelPulse 3.8s ease-in-out infinite alternate;
    }

    .lineFlow {
      stroke-dasharray: 24 18;
      animation: lineFlow 4.8s linear infinite;
    }

    .softFloat {
      animation: softFloat 6.8s ease-in-out infinite alternate;
    }

    .fadeIn1 {
      animation: fadeIn 1.2s ease-out both;
    }

    .fadeIn2 {
      animation: fadeIn 1.2s ease-out 0.35s both;
    }

    .fadeIn3 {
      animation: fadeIn 1.2s ease-out 0.7s both;
    }

    .fadeIn4 {
      animation: fadeIn 1.2s ease-out 1.05s both;
    }

    @keyframes panelPulse {
      0%   { opacity: 0.72; }
      100% { opacity: 1; }
    }

    @keyframes lineFlow {
      to { stroke-dashoffset: -180; }
    }

    @keyframes softFloat {
      0%   { transform: translateY(-4px); opacity: 0.72; }
      100% { transform: translateY(4px); opacity: 1; }
    }

    @keyframes fadeIn {
      from { opacity: 0; transform: translateY(10px); }
      to   { opacity: 1; transform: translateY(0); }
    }
  </style>

  <!-- glass panel -->
  <rect x="58" y="54" width="1084" height="412" rx="22"
        fill="#050008" fill-opacity="0.76"
        stroke="url(#panelBorder)" stroke-width="2.5"
        filter="url(#softVioletGlow)"/>

  <rect x="78" y="76" width="1044" height="368" rx="16"
        fill="#14001f" fill-opacity="0.38"
        stroke="#4f1266" stroke-width="1"
        stroke-opacity="0.85"/>

  <!-- corner geometry -->
  <path class="lineFlow" d="M92 112 H245" stroke="#d86cff" stroke-width="2.5" filter="url(#violetGlow)"/>
  <path class="lineFlow" d="M955 112 H1108" stroke="#b026ff" stroke-width="2.5" filter="url(#violetGlow)"/>
  <path class="lineFlow" d="M92 408 H245" stroke="#b026ff" stroke-width="2.5" filter="url(#violetGlow)"/>
  <path class="lineFlow" d="M955 408 H1108" stroke="#d86cff" stroke-width="2.5" filter="url(#violetGlow)"/>

  <!-- title -->
  <g class="lineFlow">
    <g class="tron-ares-paths" fill="#b8b8b8" filter="url(#redGlow)">
  <path d="M418.04 115.5Q418.04 118.5 415.04 118.5H400.32V124.0H397.08V115.5ZM397.08 113.0V110.0H415.04Q418.04 110.0 418.04 113.0Z"/>
  <path d="M441.48 115.5V118.5H428.96V121.0H445.88V124.0H425.71999999999997V115.5ZM425.71999999999997 113.0V110.0H445.88V113.0Z"/>
  <path d="M474.22 115.5Q474.22 118.5 471.22 118.5H468.5L474.42 124.0H470.3L464.38 118.5H456.5V124.0H453.26V115.5ZM453.26 113.0V110.0H471.22Q474.22 110.0 474.22 113.0Z"/>
  <path d="M501.82 124.0V115.68L493.48 120.84L485.14 115.68V124.0H481.9V109.9L493.48 117.06L505.06 109.9V124.0Z"/>
  <path d="M522.4599999999999 110.0H525.74L536.48 124.0H532.4399999999999L530.52 121.4H520.56L522.78 118.4H528.3L524.1 112.72L515.76 124.0H511.71999999999997Z"/>
  <path d="M543.14 109.9 560.8599999999999 118.88V110.0H564.0999999999999V124.1L546.38 115.3V124.0H543.14Z"/>
  <path d="M587.54 115.5V118.5H575.02V121.0H591.9399999999999V124.0H571.78V115.5ZM571.78 113.0V110.0H591.9399999999999V113.0Z"/>
  <path d="M599.3199999999999 109.9 617.0399999999998 118.88V110.0H620.2799999999999V124.1L602.56 115.3V124.0H599.3199999999999Z"/>
  <path d="M631.1999999999999 121.0H648.1199999999999V124.0H630.9599999999999Q627.9599999999999 124.0 627.9599999999999 121.0V115.5H631.1999999999999ZM627.9599999999999 113.0Q627.9599999999999 110.0 630.9599999999999 110.0H648.1199999999999V113.0Z"/>
  <path d="M671.3599999999999 115.5V118.5H658.8399999999999V121.0H675.7599999999999V124.0H655.5999999999999V115.5ZM655.5999999999999 113.0V110.0H675.7599999999999V113.0Z"/>
  <path d="M701.3799999999999 121.0H718.2999999999998V124.0H701.1399999999999Q698.1399999999999 124.0 698.1399999999999 121.0V115.5H701.3799999999999ZM698.1399999999999 113.0Q698.1399999999999 110.0 701.1399999999999 110.0H718.2999999999998V113.0Z"/>
  <path d="M725.7799999999999 113.0Q725.7799999999999 110.0 728.7799999999999 110.0H743.7399999999998Q746.7399999999998 110.0 746.7399999999998 113.0V121.0Q746.7399999999998 124.0 743.7399999999998 124.0H728.7799999999999Q725.7799999999999 124.0 725.7799999999999 121.0V115.5H729.0199999999999V121.0H743.4999999999998V113.0Z"/>
  <path d="M754.4199999999998 113.0V110.0H772.3799999999998Q775.3799999999998 110.0 775.3799999999998 113.0V121.0Q775.3799999999998 124.0 772.3799999999998 124.0H754.4199999999998V115.5H757.6599999999999V121.0H772.1399999999998V113.0Z"/>
  <path d="M798.8199999999998 115.5V118.5H786.2999999999998V121.0H803.2199999999998V124.0H783.0599999999998V115.5ZM783.0599999999998 113.0V110.0H803.2199999999998V113.0Z"/>
</g>
  </g>

  <g class="fadeIn1 panelPulse" filter="url(#violetGlow)">
    <g class="tron-ares-paths" fill="url(#titleGrad)" filter="url(#redGlow)">
  <path d="M-93.75500000000021 145.0H-88.89500000000021V166.0H-93.75500000000021Z"/>
  <path d="M-80.87500000000021 144.85 -54.295000000000215 158.32V145.0H-49.43500000000022V166.15L-76.01500000000021 152.95V166.0H-80.87500000000021Z"/>
  <path d="M-31.005000000000216 149.5H-42.70500000000022V145.0H-14.445000000000217V149.5H-26.145000000000216V166.0H-31.005000000000216Z"/>
  <path d="M15.92499999999978 153.25V157.75H-2.855000000000218V161.5H22.524999999999782V166.0H-7.715000000000218V153.25ZM-7.715000000000218 149.5V145.0H22.524999999999782V149.5Z"/>
  <path d="M34.954999999999785 145.0V161.5H56.734999999999786V166.0H30.094999999999786V145.0Z"/>
  <path d="M68.80499999999978 145.0V161.5H90.58499999999978V166.0H63.94499999999978V145.0Z"/>
  <path d="M97.79499999999979 145.0H102.65499999999979V166.0H97.79499999999979Z"/>
  <path d="M115.53499999999978 153.25V161.5H137.25499999999977V157.75H123.78499999999978V153.25H142.11499999999978V166.0H115.17499999999978Q110.67499999999978 166.0 110.67499999999978 161.5V153.25ZM110.67499999999978 149.5Q110.67499999999978 145.0 115.17499999999978 145.0H142.11499999999978V149.5Z"/>
  <path d="M173.77499999999978 153.25V157.75H154.99499999999978V161.5H180.37499999999977V166.0H150.13499999999976V153.25ZM150.13499999999976 149.5V145.0H180.37499999999977V149.5Z"/>
  <path d="M187.94499999999977 144.85 214.52499999999978 158.32V145.0H219.38499999999976V166.15L192.80499999999978 152.95V166.0H187.94499999999977Z"/>
  <path d="M237.81499999999977 149.5H226.11499999999978V145.0H254.37499999999977V149.5H242.67499999999978V166.0H237.81499999999977Z"/>
  <path d="M284.6049999999998 157.75Q280.1049999999998 157.75 280.1049999999998 153.25H307.0449999999998Q311.5449999999998 153.25 311.5449999999998 157.75V161.5Q311.5449999999998 166.0 307.0449999999998 166.0H280.1049999999998V161.5H306.6849999999998V157.75ZM280.1049999999998 149.5Q280.1049999999998 145.0 284.6049999999998 145.0H311.5449999999998V149.5Z"/>
  <path d="M325.2349999999998 145.0 335.76499999999976 154.96 346.2949999999998 145.0H353.4949999999998L338.19499999999977 158.83V166.0H333.33499999999975V158.83L318.0349999999998 145.0Z"/>
  <path d="M364.4849999999998 157.75Q359.9849999999998 157.75 359.9849999999998 153.25H386.9249999999998Q391.4249999999998 153.25 391.4249999999998 157.75V161.5Q391.4249999999998 166.0 386.9249999999998 166.0H359.9849999999998V161.5H386.56499999999977V157.75ZM359.9849999999998 149.5Q359.9849999999998 145.0 364.4849999999998 145.0H391.4249999999998V149.5Z"/>
  <path d="M409.8549999999998 149.5H398.1549999999998V145.0H426.4149999999998V149.5H414.7149999999998V166.0H409.8549999999998Z"/>
  <path d="M456.78499999999974 153.25V157.75H438.00499999999977V161.5H463.38499999999976V166.0H433.14499999999975V153.25ZM433.14499999999975 149.5V145.0H463.38499999999976V149.5Z"/>
  <path d="M500.83499999999975 166.0V153.52L488.32499999999976 161.26L475.81499999999977 153.52V166.0H470.95499999999976V144.85L488.32499999999976 155.59L505.69499999999977 144.85V166.0Z"/>
  <path d="M518.2149999999998 157.75Q513.7149999999998 157.75 513.7149999999998 153.25H540.6549999999997Q545.1549999999997 153.25 545.1549999999997 157.75V161.5Q545.1549999999997 166.0 540.6549999999997 166.0H513.7149999999998V161.5H540.2949999999997V157.75ZM513.7149999999998 149.5Q513.7149999999998 145.0 518.2149999999998 145.0H545.1549999999997V149.5Z"/>
  <path d="M576.6749999999997 157.75Q572.1749999999997 157.75 572.1749999999997 153.25H599.1149999999998Q603.6149999999998 153.25 603.6149999999998 157.75V161.5Q603.6149999999998 166.0 599.1149999999998 166.0H572.1749999999997V161.5H598.7549999999998V157.75ZM572.1749999999997 149.5Q572.1749999999997 145.0 576.6749999999997 145.0H603.6149999999998V149.5Z"/>
  <path d="M626.2149999999998 145.0H631.1349999999998L647.2449999999998 166.0H641.1849999999997L638.3049999999997 162.1H623.3649999999998L626.6949999999998 157.6H634.9749999999998L628.6749999999997 149.08L616.1649999999997 166.0H610.1049999999998Z"/>
  <path d="M658.2649999999998 145.0 670.7749999999997 161.92 683.2849999999997 145.0H689.3449999999998L673.2349999999998 166.0H668.3149999999998L652.2049999999998 145.0Z"/>
  <path d="M719.4749999999998 153.25V157.75H700.6949999999998V161.5H726.0749999999998V166.0H695.8349999999998V153.25ZM695.8349999999998 149.5V145.0H726.0749999999998V149.5Z"/>
  <path d="M757.5049999999998 161.5H782.8849999999998V166.0H757.1449999999998Q752.6449999999998 166.0 752.6449999999998 161.5V153.25H757.5049999999998ZM752.6449999999998 149.5Q752.6449999999998 145.0 757.1449999999998 145.0H782.8849999999998V149.5Z"/>
  <path d="M790.6049999999998 149.5Q790.6049999999998 145.0 795.1049999999998 145.0H817.5449999999998Q822.0449999999998 145.0 822.0449999999998 149.5V161.5Q822.0449999999998 166.0 817.5449999999998 166.0H795.1049999999998Q790.6049999999998 166.0 790.6049999999998 161.5V153.25H795.4649999999998V161.5H817.1849999999998V149.5Z"/>
  <path d="M834.9249999999998 153.25V161.5H856.6449999999999V157.75H843.1749999999998V153.25H861.5049999999999V166.0H834.5649999999998Q830.0649999999998 166.0 830.0649999999998 161.5V153.25ZM830.0649999999998 149.5Q830.0649999999998 145.0 834.5649999999998 145.0H861.5049999999999V149.5Z"/>
  <path d="M869.5249999999999 144.85 896.1049999999999 158.32V145.0H900.9649999999999V166.15L874.3849999999999 152.95V166.0H869.5249999999999Z"/>
  <path d="M908.9849999999999 145.0H913.8449999999999V166.0H908.9849999999999Z"/>
  <path d="M932.2749999999999 149.5H920.5749999999999V145.0H948.8349999999999V149.5H937.1349999999999V166.0H932.2749999999999Z"/>
  <path d="M955.5649999999999 145.0H960.425V166.0H955.5649999999999Z"/>
  <path d="M972.9749999999999 145.0 985.4849999999999 161.92 997.9949999999999 145.0H1004.055L987.9449999999999 166.0H983.025L966.915 145.0Z"/>
  <path d="M1034.185 153.25V157.75H1015.405V161.5H1040.7849999999999V166.0H1010.545V153.25ZM1010.545 149.5V145.0H1040.7849999999999V149.5Z"/>
  <path d="M1090.9950000000001 153.25V157.75H1072.215V161.5H1097.595V166.0H1067.355V153.25ZM1067.355 149.5V145.0H1097.595V149.5Z"/>
  <path d="M1105.165 144.85 1131.745 158.32V145.0H1136.605V166.15L1110.0249999999999 152.95V166.0H1105.165Z"/>
  <path d="M1168.265 153.25V157.75H1149.485V161.5H1174.865V166.0H1144.625V153.25ZM1144.625 149.5V145.0H1174.865V149.5Z"/>
  <path d="M1213.875 153.25Q1213.875 157.75 1209.375 157.75H1205.2949999999998L1214.175 166.0H1207.995L1199.115 157.75H1187.2949999999998V166.0H1182.435V153.25ZM1182.435 149.5V145.0H1209.375Q1213.875 145.0 1213.875 149.5Z"/>
  <path d="M1226.7549999999999 153.25V161.5H1248.475V157.75H1235.0049999999999V153.25H1253.335V166.0H1226.395Q1221.895 166.0 1221.895 161.5V153.25ZM1221.895 149.5Q1221.895 145.0 1226.395 145.0H1253.335V149.5Z"/>
  <path d="M1267.025 145.0 1277.555 154.96 1288.085 145.0H1295.285L1279.9850000000001 158.83V166.0H1275.125V158.83L1259.825 145.0Z"/>
</g>
  </g>

  <!-- hook -->
  <text class="lineFlow" x="600" y="222" text-anchor="middle"
        font-family="JetBrains Mono, Consolas, monospace"
        font-size="18" font-weight="500"
        fill="#ffffff">
    <tspan x="600" dy="0">My creative ideas become code for research that serve the real world —</tspan>
    <tspan x="600" dy="30">where an experiment stops being a temporary run and becomes part of a stable, traceable system.</tspan>
  </text>

  <!-- body -->
  <text class="lineFlow" x="600" y="300" text-anchor="middle"
        font-family="JetBrains Mono, Consolas, monospace"
        font-size="17" font-weight="500"
        fill="#d8c7ff">
    <tspan x="600" dy="0">I build machine learning research systems in the spirit of </tspan>
    <tspan fill="#d86cff" font-weight="800">permanence code</tspan>
    <tspan>: stable, reproducible,</tspan>
    <tspan x="600" dy="30">auditable, and extensible by design. My work lives in the deep amethyst space between</tspan>
    <tspan x="600" dy="30">human intention and digital execution, where glowing lines of automation turn uncertainty into structure.</tspan>
  </text>

  <!-- Core Coding Principles -->
  <text class="lineFlow" x="600" y="404" text-anchor="middle"
        font-family="JetBrains Mono, Consolas, monospace"
        font-size="17" font-weight="500"
        fill="#ffffff">
    <tspan x="600" dy="0">My work is grounded in synthesis: </tspan>
    <tspan fill="#d86cff" font-weight="900">intentional purpose</tspan>
    <tspan>, programming stability with human empathy, structure with</tspan>
    <tspan x="600" dy="30">intuition, and precision with reflection for the </tspan>
    <tspan fill="#b026ff" font-weight="900">Users</tspan>
    <tspan>.</tspan>
  </text>

  
  <!-- atmosphere labels -->
  <g class="softFloat" opacity="0">
    <g transform="translate(0,10)" stroke="#050008" stroke-width="1.8">
      <g class="tron-ares-paths" fill="#c77dff" filter="url(#redGlow)">
  <path d="M43.375000000000185 500.0V489.6L32.95000000000019 496.05L22.525000000000183 489.6V500.0H18.475000000000183V482.375L32.95000000000019 491.325L47.42500000000018 482.375V500.0Z"/>
  <path d="M53.77500000000018 486.25Q53.77500000000018 482.5 57.52500000000019 482.5H76.2250000000002Q79.9750000000002 482.5 79.9750000000002 486.25V496.25Q79.9750000000002 500.0 76.2250000000002 500.0H57.52500000000019Q53.77500000000018 500.0 53.77500000000018 496.25V489.375H57.82500000000019V496.25H75.92500000000018V486.25Z"/>
  <path d="M86.32500000000019 486.25V482.5H108.77500000000019Q112.52500000000019 482.5 112.52500000000019 486.25V496.25Q112.52500000000019 500.0 108.77500000000019 500.0H86.32500000000019V489.375H90.37500000000018V496.25H108.4750000000002V486.25Z"/>
  <path d="M145.0750000000002 482.5V496.25Q145.0750000000002 500.0 141.3250000000002 500.0H122.62500000000018Q118.87500000000018 500.0 118.87500000000018 496.25V482.5H122.92500000000018V496.25H141.0250000000002V482.5Z"/>
  <path d="M155.4750000000002 482.5V496.25H173.6250000000002V500.0H151.4250000000002V482.5Z"/>
  <path d="M191.4500000000002 482.5H195.5500000000002L208.9750000000002 500.0H203.9250000000002L201.5250000000002 496.75H189.0750000000002L191.8500000000002 493.0H198.7500000000002L193.5000000000002 485.9L183.0750000000002 500.0H178.0250000000002Z"/>
  <path d="M240.2500000000002 489.375Q240.2500000000002 493.125 236.5000000000002 493.125H233.1000000000002L240.5000000000002 500.0H235.3500000000002L227.9500000000002 493.125H218.1000000000002V500.0H214.0500000000002V489.375ZM214.0500000000002 486.25V482.5H236.5000000000002Q240.2500000000002 482.5 240.2500000000002 486.25Z"/>
  <path d="M246.60000000000022 482.5H250.6500000000002V500.0H246.60000000000022Z"/>
  <path d="M265.67500000000024 486.25H255.9250000000002V482.5H279.4750000000002V486.25H269.7250000000002V500.0H265.67500000000024Z"/>
  <path d="M289.4750000000002 482.5 298.2500000000002 490.8 307.0250000000002 482.5H313.0250000000002L300.2750000000002 494.025V500.0H296.2250000000002V494.025L283.4750000000002 482.5Z"/>
  <path d="M380.55000000000024 489.375V493.125H364.90000000000026V496.25H386.05000000000024V500.0H360.85000000000025V489.375ZM360.85000000000025 486.25V482.5H386.05000000000024V486.25Z"/>
  <path d="M392.02500000000026 482.375 414.17500000000024 493.6V482.5H418.22500000000025V500.125L396.0750000000003 489.125V500.0H392.02500000000026Z"/>
  <path d="M428.6250000000003 496.25H449.77500000000026V500.0H428.3250000000003Q424.5750000000003 500.0 424.5750000000003 496.25V489.375H428.6250000000003ZM424.5750000000003 486.25Q424.5750000000003 482.5 428.3250000000003 482.5H449.77500000000026V486.25Z"/>
  <path d="M468.02500000000026 482.5H472.1250000000003L485.5500000000003 500.0H480.5000000000003L478.10000000000025 496.75H465.65000000000026L468.4250000000003 493.0H475.3250000000003L470.0750000000003 485.9L459.65000000000026 500.0H454.60000000000025Z"/>
  <path d="M516.8250000000003 489.375Q516.8250000000003 493.125 513.0750000000003 493.125H494.6750000000003V500.0H490.6250000000003V489.375ZM490.6250000000003 486.25V482.5H513.0750000000003Q516.8250000000003 482.5 516.8250000000003 486.25Z"/>
  <path d="M526.9250000000002 493.125Q523.1750000000002 493.125 523.1750000000002 489.375H545.6250000000002Q549.3750000000002 489.375 549.3750000000002 493.125V496.25Q549.3750000000002 500.0 545.6250000000002 500.0H523.1750000000002V496.25H545.3250000000003V493.125ZM523.1750000000002 486.25Q523.1750000000002 482.5 526.9250000000002 482.5H549.3750000000002V486.25Z"/>
  <path d="M581.9250000000002 482.5V496.25Q581.9250000000002 500.0 578.1750000000002 500.0H559.4750000000001Q555.7250000000001 500.0 555.7250000000001 496.25V482.5H559.7750000000002V496.25H577.8750000000002V482.5Z"/>
  <path d="M592.3250000000002 482.5V496.25H610.4750000000001V500.0H588.2750000000001V482.5Z"/>
  <path d="M628.3000000000002 482.5H632.4000000000001L645.8250000000002 500.0H640.7750000000001L638.3750000000001 496.75H625.9250000000002L628.7000000000002 493.0H635.6000000000001L630.3500000000001 485.9L619.9250000000002 500.0H614.8750000000001Z"/>
  <path d="M659.5750000000002 486.25H649.8250000000002V482.5H673.3750000000001V486.25H663.6250000000001V500.0H659.5750000000002Z"/>
  <path d="M678.6500000000001 482.5H682.7000000000002V500.0H678.6500000000001Z"/>
  <path d="M689.0500000000001 486.25Q689.0500000000001 482.5 692.8000000000001 482.5H711.5000000000001Q715.2500000000001 482.5 715.2500000000001 486.25V496.25Q715.2500000000001 500.0 711.5000000000001 500.0H692.8000000000001Q689.0500000000001 500.0 689.0500000000001 496.25V489.375H693.1000000000001V496.25H711.2000000000002V486.25Z"/>
  <path d="M721.6 482.375 743.7500000000001 493.6V482.5H747.8000000000001V500.125L725.6500000000001 489.125V500.0H721.6Z"/>
  <path d="M796.9 486.25Q796.9 482.5 800.65 482.5H819.35Q823.1 482.5 823.1 486.25V496.25Q823.1 500.0 819.35 500.0H800.65Q796.9 500.0 796.9 496.25V489.375H800.95V496.25H819.0500000000001V486.25Z"/>
  <path d="M855.65 489.375Q855.65 493.125 851.9 493.125H848.5L855.9 500.0H850.75L843.35 493.125H833.5V500.0H829.4499999999999V489.375ZM829.4499999999999 486.25V482.5H851.9Q855.65 482.5 855.65 486.25Z"/>
  <path d="M866.05 496.25H887.1999999999999V500.0H865.7499999999999Q861.9999999999999 500.0 861.9999999999999 496.25V489.375H866.05ZM861.9999999999999 486.25Q861.9999999999999 482.5 865.7499999999999 482.5H887.1999999999999V486.25Z"/>
  <path d="M893.2999999999998 482.5H897.3499999999999V489.375H915.4499999999999V482.5H919.4999999999999V500.0H915.4499999999999V493.125H897.3499999999999V500.0H893.2999999999998Z"/>
  <path d="M945.5499999999998 489.375V493.125H929.8999999999999V496.25H951.0499999999998V500.0H925.8499999999998V489.375ZM925.8499999999998 486.25V482.5H951.0499999999998V486.25Z"/>
  <path d="M960.7749999999997 493.125Q957.0249999999997 493.125 957.0249999999997 489.375H979.4749999999998Q983.2249999999998 489.375 983.2249999999998 493.125V496.25Q983.2249999999998 500.0 979.4749999999998 500.0H957.0249999999997V496.25H979.1749999999998V493.125ZM957.0249999999997 486.25Q957.0249999999997 482.5 960.7749999999997 482.5H983.2249999999998V486.25Z"/>
  <path d="M998.2499999999998 486.25H988.4999999999998V482.5H1012.0499999999997V486.25H1002.2999999999997V500.0H998.2499999999998Z"/>
  <path d="M1043.5249999999996 489.375Q1043.5249999999996 493.125 1039.7749999999996 493.125H1036.3749999999998L1043.7749999999996 500.0H1038.6249999999998L1031.2249999999997 493.125H1021.3749999999998V500.0H1017.3249999999997V489.375ZM1017.3249999999997 486.25V482.5H1039.7749999999996Q1043.5249999999996 482.5 1043.5249999999996 486.25Z"/>
  <path d="M1062.0249999999999 482.5H1066.1249999999998L1079.5499999999997 500.0H1074.4999999999998L1072.1 496.75H1059.6499999999999L1062.4249999999997 493.0H1069.3249999999998L1064.0749999999998 485.9L1053.6499999999999 500.0H1048.6Z"/>
  <path d="M1093.2999999999997 486.25H1083.5499999999997V482.5H1107.1V486.25H1097.35V500.0H1093.2999999999997Z"/>
  <path d="M1112.3749999999998 482.5H1116.4249999999997V500.0H1112.3749999999998Z"/>
  <path d="M1122.7749999999999 486.25Q1122.7749999999999 482.5 1126.5249999999999 482.5H1145.225Q1148.975 482.5 1148.975 486.25V496.25Q1148.975 500.0 1145.225 500.0H1126.5249999999999Q1122.7749999999999 500.0 1122.7749999999999 496.25V489.375H1126.8249999999998V496.25H1144.925V486.25Z"/>
  <path d="M1155.3249999999998 482.375 1177.475 493.6V482.5H1181.5249999999999V500.125L1159.3749999999998 489.125V500.0H1155.3249999999998Z"/>
</g>
    </g>
  </g>
</svg>