<svg width="1200" height="520" viewBox="0 0 1200 520" fill="none" xmlns="http://www.w3.org/2000/svg">
  
  <defs>
    <linearGradient id="identityPanel_bg" x1="0" y1="0" x2="1200" y2="520" gradientUnits="userSpaceOnUse">
      <stop offset="0" stop-color="#050008"/>
      <stop offset="0.45" stop-color="#14001f"/>
      <stop offset="0.78" stop-color="#2b003d"/>
      <stop offset="1" stop-color="#b026ff"/>
    </linearGradient>

    <radialGradient id="identityPanel_wheelGlow" cx="50%" cy="50%" r="50%">
      <stop offset="0" stop-color="#d86cff" stop-opacity="0.18"/>
      <stop offset="0.55" stop-color="#d86cff" stop-opacity="0.08"/>
      <stop offset="1" stop-color="#d86cff" stop-opacity="0"/>
    </radialGradient>

    <radialGradient id="identityPanel_wheelGlow2" cx="50%" cy="50%" r="50%">
      <stop offset="0" stop-color="#b026ff" stop-opacity="0.15"/>
      <stop offset="0.65" stop-color="#b026ff" stop-opacity="0.06"/>
      <stop offset="1" stop-color="#b026ff" stop-opacity="0"/>
    </radialGradient>

    <pattern id="identityPanel_grid" width="38" height="38" patternUnits="userSpaceOnUse">
      <path d="M 38 0 L 0 0 0 38" fill="none" stroke="#4f1266" stroke-width="1" opacity="0.45"/>
    </pattern>

    <linearGradient id="identityPanel_scanLine" x1="0" y1="0" x2="1200" y2="0" gradientUnits="userSpaceOnUse">
      <stop offset="0" stop-color="#d86cff" stop-opacity="0"/>
      <stop offset="0.5" stop-color="#d86cff" stop-opacity="0.95"/>
      <stop offset="1" stop-color="#d86cff" stop-opacity="0"/>
    </linearGradient>

    <filter id="identityPanel_glow" x="-50%" y="-50%" width="200%" height="200%">
      <feGaussianBlur stdDeviation="4" result="blur"/>
      <feMerge>
        <feMergeNode in="blur"/>
        <feMergeNode in="SourceGraphic"/>
      </feMerge>
    </filter>

    <filter id="identityPanel_softGlow" x="-50%" y="-50%" width="200%" height="200%">
      <feGaussianBlur stdDeviation="10" result="blur"/>
      <feMerge>
        <feMergeNode in="blur"/>
        <feMergeNode in="SourceGraphic"/>
      </feMerge>
    </filter>
  </defs>

  <style>
    .identityPanel_scan {
      animation: identityPanel_scanMove 4.8s linear infinite;
    }

    .identityPanel_pulse {
      animation: identityPanel_pulse 2.8s ease-in-out infinite alternate;
    }

    .identityPanel_pulseSlow {
      animation: identityPanel_pulseSlow 5.2s ease-in-out infinite alternate;
    }

    .identityPanel_spinCW {
      transform-origin: 936px 218px;
      animation: identityPanel_spinCW 16s linear infinite;
    }

    .identityPanel_spinCCW {
      transform-origin: 936px 218px;
      animation: identityPanel_spinCCW 22s linear infinite;
    }

    .identityPanel_spinLeft {
      transform-origin: 216px 364px;
      animation: identityPanel_spinLeft 18s linear infinite;
    }

    .identityPanel_dash {
      stroke-dasharray: 14 12;
      animation: identityPanel_dashMove 4s linear infinite;
    }

    .identityPanel_float {
      animation: identityPanel_float 6s ease-in-out infinite alternate;
    }

    @keyframes identityPanel_scanMove {
      0%   { transform: translateY(-60px); opacity: 0; }
      12%  { opacity: 0.9; }
      50%  { opacity: 0.5; }
      100% { transform: translateY(600px); opacity: 0; }
    }

    @keyframes identityPanel_pulse {
      0%   { opacity: 0.45; }
      100% { opacity: 1; }
    }

    @keyframes identityPanel_pulseSlow {
      0%   { opacity: 0.18; }
      100% { opacity: 0.52; }
    }

    @keyframes identityPanel_spinCW {
      from { transform: rotate(0deg); }
      to   { transform: rotate(360deg); }
    }

    @keyframes identityPanel_spinCCW {
      from { transform: rotate(360deg); }
      to   { transform: rotate(0deg); }
    }

    @keyframes identityPanel_spinLeft {
      from { transform: rotate(0deg); }
      to   { transform: rotate(-360deg); }
    }

    @keyframes identityPanel_dashMove {
      to { stroke-dashoffset: -120; }
    }

    @keyframes identityPanel_float {
      0%   { transform: translateX(-12px); opacity: 0.55; }
      100% { transform: translateX(12px); opacity: 0.95; }
    }
  </style>

  <rect width="1200" height="520" fill="url(#identityPanel_bg)"/>
  <rect width="1200" height="520" fill="url(#identityPanel_grid)" opacity="0.72"/>

  <rect class="identityPanel_scan" x="0" y="0" width="1200" height="22" fill="url(#identityPanel_scanLine)" opacity="0.75"/>

  <!-- ambient glow fields -->
  <circle class="identityPanel_pulseSlow" cx="936" cy="218" r="187" fill="url(#identityPanel_wheelGlow)"/>
  <circle class="identityPanel_pulseSlow" cx="216" cy="364" r="72" fill="url(#identityPanel_wheelGlow2)"/>

  <!-- main wheel -->
  <g class="identityPanel_spinCW" opacity="0.18">
    <circle cx="936" cy="218" r="93" fill="none" stroke="#d86cff" stroke-width="2" filter="url(#identityPanel_glow)"/>
    <circle cx="936" cy="218" r="140" fill="none" stroke="#b026ff" stroke-width="2" filter="url(#identityPanel_glow)"/>
    <circle cx="936" cy="218" r="187" fill="none" stroke="#d86cff" stroke-width="1.5" opacity="0.7" filter="url(#identityPanel_softGlow)"/>

    <line x1="749" y1="218" x2="1123" y2="218" stroke="#d86cff" stroke-width="1.5" opacity="0.6"/>
    <line x1="936" y1="31" x2="936" y2="405" stroke="#b026ff" stroke-width="1.5" opacity="0.6"/>
    <line x1="796" y1="78" x2="1076" y2="358" stroke="#d86cff" stroke-width="1.2" opacity="0.45"/>
    <line x1="796" y1="358" x2="1076" y2="78" stroke="#b026ff" stroke-width="1.2" opacity="0.45"/>
  </g>

  <!-- counter-rotating wheel segments -->
  <g class="identityPanel_spinCCW" opacity="0.18">
    <path d="M 796 218 A 140 140 0 0 1 936 78" fill="none" stroke="#d86cff" stroke-width="3" filter="url(#identityPanel_glow)"/>
    <path d="M 936 78 A 140 140 0 0 1 1076 218" fill="none" stroke="#b026ff" stroke-width="3" filter="url(#identityPanel_glow)"/>
    <path d="M 1076 218 A 140 140 0 0 1 936 358" fill="none" stroke="#d86cff" stroke-width="3" filter="url(#identityPanel_glow)"/>
    <path d="M 936 358 A 140 140 0 0 1 796 218" fill="none" stroke="#b026ff" stroke-width="3" filter="url(#identityPanel_glow)"/>
  </g>

  <!-- secondary left wheel -->
  <g class="identityPanel_spinLeft" opacity="0.18">
    <circle cx="216" cy="364" r="72" fill="none" stroke="#b026ff" stroke-width="1.8" filter="url(#identityPanel_glow)"/>
    <circle cx="216" cy="364" r="44" fill="none" stroke="#d86cff" stroke-width="1.3" filter="url(#identityPanel_glow)"/>
    <line x1="144" y1="364" x2="288" y2="364" stroke="#b026ff" stroke-width="1"/>
    <line x1="216" y1="292" x2="216" y2="436" stroke="#d86cff" stroke-width="1"/>
  </g>

  <!-- horizon / laser terrain -->
  <path class="identityPanel_pulse" d="M0 416 C 180 364 264 457 432 405 C 660 338 804 447 983 395 C 1104 364 1164 390 1200 353 V 520 H 0 Z"
        fill="#d86cff" opacity="0.10"/>

  <path class="identityPanel_dash" d="M0 436 C 216 374 312 478 480 421 C 696 348 864 462 1056 410 C 1140 384 1176 374 1200 364"
        fill="none" stroke="#d86cff" stroke-width="2.4" opacity="0.95" filter="url(#identityPanel_glow)"/>

  <line class="identityPanel_float" x1="96" y1="93" x2="1104" y2="93" stroke="#d86cff" stroke-width="1.8" opacity="0.65" filter="url(#identityPanel_glow)"/>
  <line class="identityPanel_float" x1="192" y1="374" x2="1008" y2="374" stroke="#b026ff" stroke-width="1.6" opacity="0.55"/>


  <defs>
    <filter id="violetGlow" x="-50%" y="-50%" width="200%" height="200%">
      <feGaussianBlur stdDeviation="4" result="blur"/>
      <feMerge>
        <feMergeNode in="blur"/>
        <feMergeNode in="SourceGraphic"/>
      </feMerge>
    </filter>

    <filter id="softVioletGlow" x="-50%" y="-50%" width="200%" height="200%">
      <feGaussianBlur stdDeviation="8" result="blur"/>
      <feMerge>
        <feMergeNode in="blur"/>
        <feMergeNode in="SourceGraphic"/>
      </feMerge>
    </filter>

    <linearGradient id="panelBorder" x1="0" y1="0" x2="1200" y2="520" gradientUnits="userSpaceOnUse">
      <stop offset="0" stop-color="#d86cff"/>
      <stop offset="0.45" stop-color="#b026ff"/>
      <stop offset="1" stop-color="#4f1266"/>
    </linearGradient>

    <linearGradient id="titleGrad" x1="250" y1="0" x2="950" y2="0" gradientUnits="userSpaceOnUse">
      <stop offset="0" stop-color="#ffffff"/>
      <stop offset="0.35" stop-color="#d86cff"/>
      <stop offset="0.72" stop-color="#b026ff"/>
      <stop offset="1" stop-color="#ffffff"/>
    </linearGradient>
  </defs>

  <style>
    .panelPulse {
      animation: panelPulse 3.8s ease-in-out infinite alternate;
    }

    .lineFlow {
      stroke-dasharray: 24 18;
      animation: lineFlow 4.8s linear infinite;
    }

    .softFloat {
      animation: softFloat 6.8s ease-in-out infinite alternate;
    }

    .fadeIn1 {
      animation: fadeIn 1.2s ease-out both;
    }

    .fadeIn2 {
      animation: fadeIn 1.2s ease-out 0.35s both;
    }

    .fadeIn3 {
      animation: fadeIn 1.2s ease-out 0.7s both;
    }

    .fadeIn4 {
      animation: fadeIn 1.2s ease-out 1.05s both;
    }

    @keyframes panelPulse {
      0%   { opacity: 0.72; }
      100% { opacity: 1; }
    }

    @keyframes lineFlow {
      to { stroke-dashoffset: -180; }
    }

    @keyframes softFloat {
      0%   { transform: translateY(-4px); opacity: 0.72; }
      100% { transform: translateY(4px); opacity: 1; }
    }

    @keyframes fadeIn {
      from { opacity: 0; transform: translateY(10px); }
      to   { opacity: 1; transform: translateY(0); }
    }
  </style>

  <!-- glass panel -->
  <rect x="58" y="54" width="1084" height="412" rx="22"
        fill="#050008" fill-opacity="0.76"
        stroke="url(#panelBorder)" stroke-width="2.5"
        filter="url(#softVioletGlow)"/>

  <rect x="78" y="76" width="1044" height="368" rx="16"
        fill="#14001f" fill-opacity="0.38"
        stroke="#4f1266" stroke-width="1"
        stroke-opacity="0.85"/>

  <!-- corner geometry -->
  <path class="lineFlow" d="M92 112 H245" stroke="#d86cff" stroke-width="2.5" filter="url(#violetGlow)"/>
  <path class="lineFlow" d="M955 112 H1108" stroke="#b026ff" stroke-width="2.5" filter="url(#violetGlow)"/>
  <path class="lineFlow" d="M92 408 H245" stroke="#b026ff" stroke-width="2.5" filter="url(#violetGlow)"/>
  <path class="lineFlow" d="M955 408 H1108" stroke="#d86cff" stroke-width="2.5" filter="url(#violetGlow)"/>

  <!-- title -->
  <text class="fadeIn1" x="600" y="124" text-anchor="middle"
        font-family="JetBrains Mono, Consolas, monospace"
        font-size="20" font-weight="800" letter-spacing="5"
        fill="#b8b8b8">
    PERMANENCE CODE
  </text>

  <text class="fadeIn1 panelPulse" x="600" y="166" text-anchor="middle"
        font-family="Orbitron, Audiowide, Rajdhani, Arial Black, sans-serif"
        font-size="30" font-weight="900" letter-spacing="4"
        fill="url(#titleGrad)" filter="url(#violetGlow)">
    INTELLIGENT SYSTEMS SAVE COGNITIVE ENERGY
  </text>

  <!-- hook -->
  <text class="fadeIn2" x="600" y="222" text-anchor="middle"
        font-family="JetBrains Mono, Consolas, monospace"
        font-size="18" font-weight="500"
        fill="#ffffff">
    <tspan x="600" dy="0">My creative ideas become code for research that serve the real world —</tspan>
    <tspan x="600" dy="30">where an experiment stops being a temporary run and becomes part of a stable, traceable system.</tspan>
  </text>

  <!-- body -->
  <text class="fadeIn3" x="600" y="300" text-anchor="middle"
        font-family="JetBrains Mono, Consolas, monospace"
        font-size="17" font-weight="500"
        fill="#d8c7ff">
    <tspan x="600" dy="0">I build machine learning research systems in the spirit of </tspan>
    <tspan fill="#d86cff" font-weight="800">permanence code</tspan>
    <tspan>: stable, reproducible,</tspan>
    <tspan x="600" dy="30">auditable, and extensible by design. My work lives in the deep amethyst space between</tspan>
    <tspan x="600" dy="30">human intention and digital execution, where glowing lines of automation turn uncertainty into structure.</tspan>
  </text>

  <!-- Core Coding Principles -->
  <text class="fadeIn4" x="600" y="404" text-anchor="middle"
        font-family="JetBrains Mono, Consolas, monospace"
        font-size="17" font-weight="500"
        fill="#ffffff">
    <tspan x="600" dy="0">My work is grounded in synthesis: </tspan>
    <tspan fill="#d86cff" font-weight="900">intentional purpose</tspan>
    <tspan>, programming stability with human empathy, structure with</tspan>
    <tspan x="600" dy="30">intuition, and precision with reflection for the </tspan>
    <tspan fill="#b026ff" font-weight="900">Users</tspan>
    <tspan>.</tspan>
  </text>

  
  <!-- atmosphere labels -->
  <g class="softFloat" opacity="0">
    <g transform="translate(0,10)" stroke="#050008" stroke-width="1.8">
      <g fill="#c77dff" filter="url(#redGlow)">
<path d="M41.875000000000185 500.0V489.6L31.450000000000184 496.05L21.025000000000183 489.6V500.0H16.975000000000183V482.375L31.450000000000184 491.325L45.92500000000018 482.375V500.0Z"/>
<path d="M52.27500000000018 486.25Q52.27500000000018 482.5 56.02500000000019 482.5H74.7250000000002Q78.4750000000002 482.5 78.4750000000002 486.25V496.25Q78.4750000000002 500.0 74.7250000000002 500.0H56.02500000000019Q52.27500000000018 500.0 52.27500000000018 496.25V489.375H56.32500000000019V496.25H74.42500000000018V486.25Z"/>
<path d="M84.82500000000017 486.25V482.5H107.27500000000018Q111.02500000000018 482.5 111.02500000000018 486.25V496.25Q111.02500000000018 500.0 107.27500000000018 500.0H84.82500000000017V489.375H88.87500000000017V496.25H106.97500000000018V486.25Z"/>
<path d="M143.57500000000016 482.5V496.25Q143.57500000000016 500.0 139.82500000000016 500.0H121.12500000000017Q117.37500000000017 500.0 117.37500000000017 496.25V482.5H121.42500000000017V496.25H139.52500000000018V482.5Z"/>
<path d="M153.97500000000016 482.5V496.25H172.12500000000017V500.0H149.92500000000018V482.5Z"/>
<path d="M189.95000000000016 482.5H194.05000000000018L207.47500000000016 500.0H202.42500000000018L200.02500000000018 496.75H187.57500000000016L190.35000000000016 493.0H197.25000000000017L192.00000000000017 485.9L181.57500000000016 500.0H176.52500000000018Z"/>
<path d="M238.75000000000017 489.375Q238.75000000000017 493.125 235.00000000000017 493.125H231.60000000000016L239.00000000000017 500.0H233.85000000000016L226.45000000000016 493.125H216.60000000000016V500.0H212.55000000000018V489.375ZM212.55000000000018 486.25V482.5H235.00000000000017Q238.75000000000017 482.5 238.75000000000017 486.25Z"/>
<path d="M245.1000000000002 482.5H249.15000000000018V500.0H245.1000000000002Z"/>
<path d="M264.1750000000002 486.25H254.42500000000018V482.5H277.9750000000002V486.25H268.2250000000002V500.0H264.1750000000002Z"/>
<path d="M287.97500000000014 482.5 296.75000000000017 490.8 305.52500000000015 482.5H311.52500000000015L298.77500000000015 494.025V500.0H294.72500000000014V494.025L281.97500000000014 482.5Z"/>
<path d="M379.0500000000002 489.375V493.125H363.4000000000002V496.25H384.5500000000002V500.0H359.3500000000002V489.375ZM359.3500000000002 486.25V482.5H384.5500000000002V486.25Z"/>
<path d="M390.5250000000002 482.375 412.6750000000002 493.6V482.5H416.7250000000002V500.125L394.5750000000002 489.125V500.0H390.5250000000002Z"/>
<path d="M427.1250000000002 496.25H448.2750000000002V500.0H426.8250000000002Q423.0750000000002 500.0 423.0750000000002 496.25V489.375H427.1250000000002ZM423.0750000000002 486.25Q423.0750000000002 482.5 426.8250000000002 482.5H448.2750000000002V486.25Z"/>
<path d="M466.5250000000002 482.5H470.6250000000002L484.05000000000024 500.0H479.0000000000002L476.6000000000002 496.75H464.1500000000002L466.92500000000024 493.0H473.8250000000002L468.5750000000002 485.9L458.1500000000002 500.0H453.1000000000002Z"/>
<path d="M515.3250000000003 489.375Q515.3250000000003 493.125 511.5750000000002 493.125H493.17500000000024V500.0H489.1250000000002V489.375ZM489.1250000000002 486.25V482.5H511.5750000000002Q515.3250000000003 482.5 515.3250000000003 486.25Z"/>
<path d="M525.4250000000002 493.125Q521.6750000000002 493.125 521.6750000000002 489.375H544.1250000000002Q547.8750000000002 489.375 547.8750000000002 493.125V496.25Q547.8750000000002 500.0 544.1250000000002 500.0H521.6750000000002V496.25H543.8250000000003V493.125ZM521.6750000000002 486.25Q521.6750000000002 482.5 525.4250000000002 482.5H547.8750000000002V486.25Z"/>
<path d="M580.4250000000002 482.5V496.25Q580.4250000000002 500.0 576.6750000000002 500.0H557.9750000000001Q554.2250000000001 500.0 554.2250000000001 496.25V482.5H558.2750000000002V496.25H576.3750000000002V482.5Z"/>
<path d="M590.8250000000002 482.5V496.25H608.9750000000001V500.0H586.7750000000001V482.5Z"/>
<path d="M626.8000000000002 482.5H630.9000000000001L644.3250000000002 500.0H639.2750000000001L636.8750000000001 496.75H624.4250000000002L627.2000000000002 493.0H634.1000000000001L628.8500000000001 485.9L618.4250000000002 500.0H613.3750000000001Z"/>
<path d="M658.0750000000002 486.25H648.3250000000002V482.5H671.8750000000001V486.25H662.1250000000001V500.0H658.0750000000002Z"/>
<path d="M677.1500000000001 482.5H681.2000000000002V500.0H677.1500000000001Z"/>
<path d="M687.5500000000001 486.25Q687.5500000000001 482.5 691.3000000000001 482.5H710.0000000000001Q713.7500000000001 482.5 713.7500000000001 486.25V496.25Q713.7500000000001 500.0 710.0000000000001 500.0H691.3000000000001Q687.5500000000001 500.0 687.5500000000001 496.25V489.375H691.6000000000001V496.25H709.7000000000002V486.25Z"/>
<path d="M720.1 482.375 742.2500000000001 493.6V482.5H746.3000000000001V500.125L724.1500000000001 489.125V500.0H720.1Z"/>
<path d="M795.4 486.25Q795.4 482.5 799.15 482.5H817.85Q821.6 482.5 821.6 486.25V496.25Q821.6 500.0 817.85 500.0H799.15Q795.4 500.0 795.4 496.25V489.375H799.45V496.25H817.5500000000001V486.25Z"/>
<path d="M854.15 489.375Q854.15 493.125 850.4 493.125H847.0L854.4 500.0H849.25L841.85 493.125H832.0V500.0H827.9499999999999V489.375ZM827.9499999999999 486.25V482.5H850.4Q854.15 482.5 854.15 486.25Z"/>
<path d="M864.55 496.25H885.6999999999999V500.0H864.2499999999999Q860.4999999999999 500.0 860.4999999999999 496.25V489.375H864.55ZM860.4999999999999 486.25Q860.4999999999999 482.5 864.2499999999999 482.5H885.6999999999999V486.25Z"/>
<path d="M891.7999999999998 482.5H895.8499999999999V489.375H913.9499999999999V482.5H917.9999999999999V500.0H913.9499999999999V493.125H895.8499999999999V500.0H891.7999999999998Z"/>
<path d="M944.0499999999998 489.375V493.125H928.3999999999999V496.25H949.5499999999998V500.0H924.3499999999998V489.375ZM924.3499999999998 486.25V482.5H949.5499999999998V486.25Z"/>
<path d="M959.2749999999997 493.125Q955.5249999999997 493.125 955.5249999999997 489.375H977.9749999999998Q981.7249999999998 489.375 981.7249999999998 493.125V496.25Q981.7249999999998 500.0 977.9749999999998 500.0H955.5249999999997V496.25H977.6749999999998V493.125ZM955.5249999999997 486.25Q955.5249999999997 482.5 959.2749999999997 482.5H981.7249999999998V486.25Z"/>
<path d="M996.7499999999998 486.25H986.9999999999998V482.5H1010.5499999999997V486.25H1000.7999999999997V500.0H996.7499999999998Z"/>
<path d="M1042.0249999999996 489.375Q1042.0249999999996 493.125 1038.2749999999996 493.125H1034.8749999999998L1042.2749999999996 500.0H1037.1249999999998L1029.7249999999997 493.125H1019.8749999999998V500.0H1015.8249999999997V489.375ZM1015.8249999999997 486.25V482.5H1038.2749999999996Q1042.0249999999996 482.5 1042.0249999999996 486.25Z"/>
<path d="M1060.5249999999999 482.5H1064.6249999999998L1078.0499999999997 500.0H1072.9999999999998L1070.6 496.75H1058.1499999999999L1060.9249999999997 493.0H1067.8249999999998L1062.5749999999998 485.9L1052.1499999999999 500.0H1047.1Z"/>
<path d="M1091.7999999999997 486.25H1082.0499999999997V482.5H1105.6V486.25H1095.85V500.0H1091.7999999999997Z"/>
<path d="M1110.8749999999998 482.5H1114.9249999999997V500.0H1110.8749999999998Z"/>
<path d="M1121.2749999999999 486.25Q1121.2749999999999 482.5 1125.0249999999999 482.5H1143.725Q1147.475 482.5 1147.475 486.25V496.25Q1147.475 500.0 1143.725 500.0H1125.0249999999999Q1121.2749999999999 500.0 1121.2749999999999 496.25V489.375H1125.3249999999998V496.25H1143.425V486.25Z"/>
<path d="M1153.8249999999998 482.375 1175.975 493.6V482.5H1180.0249999999999V500.125L1157.8749999999998 489.125V500.0H1153.8249999999998Z"/>
</g>
    </g>
  </g>
</svg>