<svg width="1200" height="76" viewBox="0 0 1200 76" fill="none" xmlns="http://www.w3.org/2000/svg">
  
  <defs>
    <linearGradient id="section-research-publications_svg_bg" x1="0" y1="0" x2="1200" y2="76" gradientUnits="userSpaceOnUse">
      <stop offset="0" stop-color="#020202"/>
      <stop offset="0.45" stop-color="#110000"/>
      <stop offset="0.78" stop-color="#2d0000"/>
      <stop offset="1" stop-color="#ff7a00"/>
    </linearGradient>

    <radialGradient id="section-research-publications_svg_wheelGlow" cx="50%" cy="50%" r="50%">
      <stop offset="0" stop-color="#ff3131" stop-opacity="0.18"/>
      <stop offset="0.55" stop-color="#ff3131" stop-opacity="0.08"/>
      <stop offset="1" stop-color="#ff3131" stop-opacity="0"/>
    </radialGradient>

    <radialGradient id="section-research-publications_svg_wheelGlow2" cx="50%" cy="50%" r="50%">
      <stop offset="0" stop-color="#ff7a00" stop-opacity="0.15"/>
      <stop offset="0.65" stop-color="#ff7a00" stop-opacity="0.06"/>
      <stop offset="1" stop-color="#ff7a00" stop-opacity="0"/>
    </radialGradient>

    <pattern id="section-research-publications_svg_grid" width="52" height="52" patternUnits="userSpaceOnUse">
      <path d="M 52 0 L 0 0 0 52" fill="none" stroke="#5d0a0a" stroke-width="1" opacity="0.45"/>
    </pattern>

    <linearGradient id="section-research-publications_svg_scanLine" x1="0" y1="0" x2="1200" y2="0" gradientUnits="userSpaceOnUse">
      <stop offset="0" stop-color="#ff3131" stop-opacity="0"/>
      <stop offset="0.5" stop-color="#ff3131" stop-opacity="0.95"/>
      <stop offset="1" stop-color="#ff3131" stop-opacity="0"/>
    </linearGradient>

    <filter id="section-research-publications_svg_glow" x="-50%" y="-50%" width="200%" height="200%">
      <feGaussianBlur stdDeviation="4" result="blur"/>
      <feMerge>
        <feMergeNode in="blur"/>
        <feMergeNode in="SourceGraphic"/>
      </feMerge>
    </filter>

    <filter id="section-research-publications_svg_softGlow" x="-50%" y="-50%" width="200%" height="200%">
      <feGaussianBlur stdDeviation="10" result="blur"/>
      <feMerge>
        <feMergeNode in="blur"/>
        <feMergeNode in="SourceGraphic"/>
      </feMerge>
    </filter>
  </defs>

  <style>
    .section-research-publications_svg_scan {
      animation: section-research-publications_svg_scanMove 4.8s linear infinite;
    }

    .section-research-publications_svg_pulse {
      animation: section-research-publications_svg_pulse 2.8s ease-in-out infinite alternate;
    }

    .section-research-publications_svg_pulseSlow {
      animation: section-research-publications_svg_pulseSlow 5.2s ease-in-out infinite alternate;
    }

    .section-research-publications_svg_spinCW {
      transform-origin: 936px 31px;
      animation: section-research-publications_svg_spinCW 16s linear infinite;
    }

    .section-research-publications_svg_spinCCW {
      transform-origin: 936px 31px;
      animation: section-research-publications_svg_spinCCW 22s linear infinite;
    }

    .section-research-publications_svg_spinLeft {
      transform-origin: 216px 53px;
      animation: section-research-publications_svg_spinLeft 18s linear infinite;
    }

    .section-research-publications_svg_dash {
      stroke-dasharray: 14 12;
      animation: section-research-publications_svg_dashMove 4s linear infinite;
    }

    .section-research-publications_svg_float {
      animation: section-research-publications_svg_float 6s ease-in-out infinite alternate;
    }

    @keyframes section-research-publications_svg_scanMove {
      0%   { transform: translateY(-60px); opacity: 0; }
      12%  { opacity: 0.9; }
      50%  { opacity: 0.5; }
      100% { transform: translateY(156px); opacity: 0; }
    }

    @keyframes section-research-publications_svg_pulse {
      0%   { opacity: 0.45; }
      100% { opacity: 1; }
    }

    @keyframes section-research-publications_svg_pulseSlow {
      0%   { opacity: 0.18; }
      100% { opacity: 0.52; }
    }

    @keyframes section-research-publications_svg_spinCW {
      from { transform: rotate(0deg); }
      to   { transform: rotate(360deg); }
    }

    @keyframes section-research-publications_svg_spinCCW {
      from { transform: rotate(360deg); }
      to   { transform: rotate(0deg); }
    }

    @keyframes section-research-publications_svg_spinLeft {
      from { transform: rotate(0deg); }
      to   { transform: rotate(-360deg); }
    }

    @keyframes section-research-publications_svg_dashMove {
      to { stroke-dashoffset: -120; }
    }

    @keyframes section-research-publications_svg_float {
      0%   { transform: translateX(-12px); opacity: 0.55; }
      100% { transform: translateX(12px); opacity: 0.95; }
    }
  </style>

  <rect width="1200" height="76" fill="url(#section-research-publications_svg_bg)"/>
  <rect width="1200" height="76" fill="url(#section-research-publications_svg_grid)" opacity="0.72"/>

  <rect class="section-research-publications_svg_scan" x="0" y="0" width="1200" height="22" fill="url(#section-research-publications_svg_scanLine)" opacity="0.75"/>

  <!-- ambient glow fields -->
  <circle class="section-research-publications_svg_pulseSlow" cx="936" cy="31" r="27" fill="url(#section-research-publications_svg_wheelGlow)"/>
  <circle class="section-research-publications_svg_pulseSlow" cx="216" cy="53" r="10" fill="url(#section-research-publications_svg_wheelGlow2)"/>

  <!-- main wheel -->
  <g class="section-research-publications_svg_spinCW" opacity="0.15">
    <circle cx="936" cy="31" r="13" fill="none" stroke="#ff3131" stroke-width="2" filter="url(#section-research-publications_svg_glow)"/>
    <circle cx="936" cy="31" r="20" fill="none" stroke="#ff7a00" stroke-width="2" filter="url(#section-research-publications_svg_glow)"/>
    <circle cx="936" cy="31" r="27" fill="none" stroke="#ff3131" stroke-width="1.5" opacity="0.7" filter="url(#section-research-publications_svg_softGlow)"/>

    <line x1="909" y1="31" x2="963" y2="31" stroke="#ff3131" stroke-width="1.5" opacity="0.6"/>
    <line x1="936" y1="4" x2="936" y2="58" stroke="#ff7a00" stroke-width="1.5" opacity="0.6"/>
    <line x1="916" y1="11" x2="956" y2="51" stroke="#ff3131" stroke-width="1.2" opacity="0.45"/>
    <line x1="916" y1="51" x2="956" y2="11" stroke="#ff7a00" stroke-width="1.2" opacity="0.45"/>
  </g>

  <!-- counter-rotating wheel segments -->
  <g class="section-research-publications_svg_spinCCW" opacity="0.15">
    <path d="M 916 31 A 20 20 0 0 1 936 11" fill="none" stroke="#ff3131" stroke-width="3" filter="url(#section-research-publications_svg_glow)"/>
    <path d="M 936 11 A 20 20 0 0 1 956 31" fill="none" stroke="#ff7a00" stroke-width="3" filter="url(#section-research-publications_svg_glow)"/>
    <path d="M 956 31 A 20 20 0 0 1 936 51" fill="none" stroke="#ff3131" stroke-width="3" filter="url(#section-research-publications_svg_glow)"/>
    <path d="M 936 51 A 20 20 0 0 1 916 31" fill="none" stroke="#ff7a00" stroke-width="3" filter="url(#section-research-publications_svg_glow)"/>
  </g>

  <!-- secondary left wheel -->
  <g class="section-research-publications_svg_spinLeft" opacity="0.15">
    <circle cx="216" cy="53" r="10" fill="none" stroke="#ff7a00" stroke-width="1.8" filter="url(#section-research-publications_svg_glow)"/>
    <circle cx="216" cy="53" r="6" fill="none" stroke="#ff3131" stroke-width="1.3" filter="url(#section-research-publications_svg_glow)"/>
    <line x1="206" y1="53" x2="226" y2="53" stroke="#ff7a00" stroke-width="1"/>
    <line x1="216" y1="43" x2="216" y2="63" stroke="#ff3131" stroke-width="1"/>
  </g>

  <!-- horizon / laser terrain -->
  <path class="section-research-publications_svg_pulse" d="M0 60 C 180 53 264 66 432 59 C 660 49 804 65 983 57 C 1104 53 1164 57 1200 51 V 76 H 0 Z"
        fill="#ff3131" opacity="0.10"/>

  <path class="section-research-publications_svg_dash" d="M0 63 C 216 54 312 69 480 61 C 696 50 864 67 1056 60 C 1140 56 1176 54 1200 53"
        fill="none" stroke="#ff3131" stroke-width="2.4" opacity="0.95" filter="url(#section-research-publications_svg_glow)"/>

  <line class="section-research-publications_svg_float" x1="96" y1="13" x2="1104" y2="13" stroke="#ff3131" stroke-width="1.8" opacity="0.65" filter="url(#section-research-publications_svg_glow)"/>
  <line class="section-research-publications_svg_float" x1="192" y1="54" x2="1008" y2="54" stroke="#ff7a00" stroke-width="1.6" opacity="0.55"/>


  <defs>
    <linearGradient id="bar" x1="0" y1="0" x2="1200" y2="0" gradientUnits="userSpaceOnUse">
      <stop offset="0" stop-color="#1a0400" stop-opacity="0.86"/>
      <stop offset="0.5" stop-color="#361000" stop-opacity="0.72"/>
      <stop offset="1" stop-color="#1a0400" stop-opacity="0.86"/>
    </linearGradient>

    <filter id="redGlow" x="-20%" y="-80%" width="140%" height="260%">
      <feGaussianBlur stdDeviation="3" result="blur"/>
      <feMerge>
        <feMergeNode in="blur"/>
        <feMergeNode in="SourceGraphic"/>
      </feMerge>
    </filter>

    <filter id="violetGlow" x="-20%" y="-80%" width="140%" height="260%">
      <feGaussianBlur stdDeviation="3" result="blur"/>
      <feMerge>
        <feMergeNode in="blur"/>
        <feMergeNode in="SourceGraphic"/>
      </feMerge>
    </filter>

    <filter id="softGlow" x="-20%" y="-80%" width="140%" height="260%">
      <feGaussianBlur stdDeviation="6" result="blur"/>
      <feMerge>
        <feMergeNode in="blur"/>
        <feMergeNode in="SourceGraphic"/>
      </feMerge>
    </filter>

    <filter id="softVioletGlow" x="-20%" y="-80%" width="140%" height="260%">
      <feGaussianBlur stdDeviation="6" result="blur"/>
      <feMerge>
        <feMergeNode in="blur"/>
        <feMergeNode in="SourceGraphic"/>
      </feMerge>
    </filter>
  </defs>

  <style>
    .edge {
      stroke-dasharray: 14 12;
      animation: dashMove 3.8s linear infinite;
    }

    .pulse {
      animation: pulseGlow 2.8s ease-in-out infinite alternate;
    }

    @keyframes dashMove {
      to { stroke-dashoffset: -120; }
    }

    @keyframes pulseGlow {
      0% { opacity: 0.68; }
      100% { opacity: 1; }
    }
  </style>

  <rect x="8" y="8" width="1184" height="60" rx="8" fill="url(#bar)" stroke="#ff7a00" stroke-width="2"/>
  <rect x="8" y="8" width="1184" height="60" rx="8" fill="none" stroke="#ff7a00" stroke-opacity="0.28" stroke-width="1"/>

  <path class="edge" d="M28 38H126" stroke="#ff7a00" stroke-width="3" filter="url(#softGlow)"/>
  <path class="edge" d="M1074 38H1172" stroke="#ff7a00" stroke-width="3" filter="url(#softGlow)"/>

  <g class="pulse">
    <g class="tron-ares-paths" fill="#ff1e1e" filter="url(#redGlow)">
  <path d="M264.12499999999994 35.25Q264.12499999999994 39.75 259.62499999999994 39.75H255.54499999999996L264.42499999999995 48.0H258.24499999999995L249.36499999999995 39.75H237.54499999999996V48.0H232.68499999999995V35.25ZM232.68499999999995 31.5V27.0H259.62499999999994Q264.12499999999994 27.0 264.12499999999994 31.5Z"/>
  <path d="M295.7849999999999 35.25V39.75H277.00499999999994V43.5H302.38499999999993V48.0H272.1449999999999V35.25ZM272.1449999999999 31.5V27.0H302.38499999999993V31.5Z"/>
  <path d="M314.4549999999999 39.75Q309.9549999999999 39.75 309.9549999999999 35.25H336.8949999999999Q341.3949999999999 35.25 341.3949999999999 39.75V43.5Q341.3949999999999 48.0 336.8949999999999 48.0H309.9549999999999V43.5H336.5349999999999V39.75ZM309.9549999999999 31.5Q309.9549999999999 27.0 314.4549999999999 27.0H341.3949999999999V31.5Z"/>
  <path d="M373.0549999999999 35.25V39.75H354.2749999999999V43.5H379.6549999999999V48.0H349.4149999999999V35.25ZM349.4149999999999 31.5V27.0H379.6549999999999V31.5Z"/>
  <path d="M401.8049999999999 27.0H406.7249999999999L422.8349999999999 48.0H416.7749999999999L413.8949999999999 44.1H398.9549999999999L402.2849999999999 39.6H410.56499999999994L404.26499999999993 31.080000000000002L391.75499999999994 48.0H385.69499999999994Z"/>
  <path d="M460.76499999999993 35.25Q460.76499999999993 39.75 456.26499999999993 39.75H452.18499999999995L461.06499999999994 48.0H454.88499999999993L446.00499999999994 39.75H434.18499999999995V48.0H429.32499999999993V35.25ZM429.32499999999993 31.5V27.0H456.26499999999993Q460.76499999999993 27.0 460.76499999999993 31.5Z"/>
  <path d="M473.6449999999999 43.5H499.0249999999999V48.0H473.2849999999999Q468.7849999999999 48.0 468.7849999999999 43.5V35.25H473.6449999999999ZM468.7849999999999 31.5Q468.7849999999999 27.0 473.2849999999999 27.0H499.0249999999999V31.5Z"/>
  <path d="M506.7449999999999 27.0H511.6049999999999V35.25H533.3249999999999V27.0H538.185V48.0H533.3249999999999V39.75H511.6049999999999V48.0H506.7449999999999Z"/>
  <path d="M596.645 35.25Q596.645 39.75 592.145 39.75H570.0649999999999V48.0H565.2049999999999V35.25ZM565.2049999999999 31.5V27.0H592.145Q596.645 27.0 596.645 31.5Z"/>
  <path d="M636.105 27.0V43.5Q636.105 48.0 631.605 48.0H609.165Q604.665 48.0 604.665 43.5V27.0H609.525V43.5H631.245V27.0Z"/>
  <path d="M671.065 35.25Q675.565 35.25 675.565 39.75V43.5Q675.565 48.0 671.065 48.0H644.125V35.25ZM644.125 31.5V27.0H671.065Q675.565 27.0 675.565 31.5ZM648.985 43.5H670.705V39.75H648.985Z"/>
  <path d="M688.445 27.0V43.5H710.225V48.0H683.585V27.0Z"/>
  <path d="M717.4350000000001 27.0H722.2950000000001V48.0H717.4350000000001Z"/>
  <path d="M735.1750000000001 43.5H760.5550000000001V48.0H734.815Q730.315 48.0 730.315 43.5V35.25H735.1750000000001ZM730.315 31.5Q730.315 27.0 734.815 27.0H760.5550000000001V31.5Z"/>
  <path d="M782.8550000000001 27.0H787.7750000000001L803.8850000000001 48.0H797.825L794.945 44.1H780.0050000000001L783.3350000000002 39.6H791.6150000000001L785.315 31.080000000000002L772.8050000000001 48.0H766.7450000000001Z"/>
  <path d="M820.7850000000001 31.5H809.0850000000002V27.0H837.3450000000001V31.5H825.6450000000001V48.0H820.7850000000001Z"/>
  <path d="M844.0750000000002 27.0H848.9350000000002V48.0H844.0750000000002Z"/>
  <path d="M856.9550000000002 31.5Q856.9550000000002 27.0 861.4550000000002 27.0H883.8950000000002Q888.3950000000002 27.0 888.3950000000002 31.5V43.5Q888.3950000000002 48.0 883.8950000000002 48.0H861.4550000000002Q856.9550000000002 48.0 856.9550000000002 43.5V35.25H861.8150000000002V43.5H883.5350000000002V31.5Z"/>
  <path d="M896.4150000000002 26.85 922.9950000000002 40.32V27.0H927.8550000000002V48.15L901.2750000000002 34.95V48.0H896.4150000000002Z"/>
  <path d="M940.3750000000002 39.75Q935.8750000000002 39.75 935.8750000000002 35.25H962.8150000000003Q967.3150000000003 35.25 967.3150000000003 39.75V43.5Q967.3150000000003 48.0 962.8150000000003 48.0H935.8750000000002V43.5H962.4550000000003V39.75ZM935.8750000000002 31.5Q935.8750000000002 27.0 940.3750000000002 27.0H967.3150000000003V31.5Z"/>
</g>
  </g>
</svg>