<svg width="1200" height="76" viewBox="0 0 1200 76" fill="none" xmlns="http://www.w3.org/2000/svg">
  
  <defs>
    <linearGradient id="section-research-direction_svg_bg" x1="0" y1="0" x2="1200" y2="76" gradientUnits="userSpaceOnUse">
      <stop offset="0" stop-color="#020202"/>
      <stop offset="0.45" stop-color="#110000"/>
      <stop offset="0.78" stop-color="#2d0000"/>
      <stop offset="1" stop-color="#ff7a00"/>
    </linearGradient>

    <radialGradient id="section-research-direction_svg_wheelGlow" cx="50%" cy="50%" r="50%">
      <stop offset="0" stop-color="#ff3131" stop-opacity="0.18"/>
      <stop offset="0.55" stop-color="#ff3131" stop-opacity="0.08"/>
      <stop offset="1" stop-color="#ff3131" stop-opacity="0"/>
    </radialGradient>

    <radialGradient id="section-research-direction_svg_wheelGlow2" cx="50%" cy="50%" r="50%">
      <stop offset="0" stop-color="#ff7a00" stop-opacity="0.15"/>
      <stop offset="0.65" stop-color="#ff7a00" stop-opacity="0.06"/>
      <stop offset="1" stop-color="#ff7a00" stop-opacity="0"/>
    </radialGradient>

    <pattern id="section-research-direction_svg_grid" width="52" height="52" patternUnits="userSpaceOnUse">
      <path d="M 52 0 L 0 0 0 52" fill="none" stroke="#5d0a0a" stroke-width="1" opacity="0.45"/>
    </pattern>

    <linearGradient id="section-research-direction_svg_scanLine" x1="0" y1="0" x2="1200" y2="0" gradientUnits="userSpaceOnUse">
      <stop offset="0" stop-color="#ff3131" stop-opacity="0"/>
      <stop offset="0.5" stop-color="#ff3131" stop-opacity="0.95"/>
      <stop offset="1" stop-color="#ff3131" stop-opacity="0"/>
    </linearGradient>

    <filter id="section-research-direction_svg_glow" x="-50%" y="-50%" width="200%" height="200%">
      <feGaussianBlur stdDeviation="4" result="blur"/>
      <feMerge>
        <feMergeNode in="blur"/>
        <feMergeNode in="SourceGraphic"/>
      </feMerge>
    </filter>

    <filter id="section-research-direction_svg_softGlow" x="-50%" y="-50%" width="200%" height="200%">
      <feGaussianBlur stdDeviation="10" result="blur"/>
      <feMerge>
        <feMergeNode in="blur"/>
        <feMergeNode in="SourceGraphic"/>
      </feMerge>
    </filter>
  </defs>

  <style>
    .section-research-direction_svg_scan {
      animation: section-research-direction_svg_scanMove 4.8s linear infinite;
    }

    .section-research-direction_svg_pulse {
      animation: section-research-direction_svg_pulse 2.8s ease-in-out infinite alternate;
    }

    .section-research-direction_svg_pulseSlow {
      animation: section-research-direction_svg_pulseSlow 5.2s ease-in-out infinite alternate;
    }

    .section-research-direction_svg_spinCW {
      transform-origin: 936px 31px;
      animation: section-research-direction_svg_spinCW 16s linear infinite;
    }

    .section-research-direction_svg_spinCCW {
      transform-origin: 936px 31px;
      animation: section-research-direction_svg_spinCCW 22s linear infinite;
    }

    .section-research-direction_svg_spinLeft {
      transform-origin: 216px 53px;
      animation: section-research-direction_svg_spinLeft 18s linear infinite;
    }

    .section-research-direction_svg_dash {
      stroke-dasharray: 14 12;
      animation: section-research-direction_svg_dashMove 4s linear infinite;
    }

    .section-research-direction_svg_float {
      animation: section-research-direction_svg_float 6s ease-in-out infinite alternate;
    }

    @keyframes section-research-direction_svg_scanMove {
      0%   { transform: translateY(-60px); opacity: 0; }
      12%  { opacity: 0.9; }
      50%  { opacity: 0.5; }
      100% { transform: translateY(156px); opacity: 0; }
    }

    @keyframes section-research-direction_svg_pulse {
      0%   { opacity: 0.45; }
      100% { opacity: 1; }
    }

    @keyframes section-research-direction_svg_pulseSlow {
      0%   { opacity: 0.18; }
      100% { opacity: 0.52; }
    }

    @keyframes section-research-direction_svg_spinCW {
      from { transform: rotate(0deg); }
      to   { transform: rotate(360deg); }
    }

    @keyframes section-research-direction_svg_spinCCW {
      from { transform: rotate(360deg); }
      to   { transform: rotate(0deg); }
    }

    @keyframes section-research-direction_svg_spinLeft {
      from { transform: rotate(0deg); }
      to   { transform: rotate(-360deg); }
    }

    @keyframes section-research-direction_svg_dashMove {
      to { stroke-dashoffset: -120; }
    }

    @keyframes section-research-direction_svg_float {
      0%   { transform: translateX(-12px); opacity: 0.55; }
      100% { transform: translateX(12px); opacity: 0.95; }
    }
  </style>

  <rect width="1200" height="76" fill="url(#section-research-direction_svg_bg)"/>
  <rect width="1200" height="76" fill="url(#section-research-direction_svg_grid)" opacity="0.72"/>

  <rect class="section-research-direction_svg_scan" x="0" y="0" width="1200" height="22" fill="url(#section-research-direction_svg_scanLine)" opacity="0.75"/>

  <!-- ambient glow fields -->
  <circle class="section-research-direction_svg_pulseSlow" cx="936" cy="31" r="27" fill="url(#section-research-direction_svg_wheelGlow)"/>
  <circle class="section-research-direction_svg_pulseSlow" cx="216" cy="53" r="10" fill="url(#section-research-direction_svg_wheelGlow2)"/>

  <!-- main wheel -->
  <g class="section-research-direction_svg_spinCW" opacity="0.15">
    <circle cx="936" cy="31" r="13" fill="none" stroke="#ff3131" stroke-width="2" filter="url(#section-research-direction_svg_glow)"/>
    <circle cx="936" cy="31" r="20" fill="none" stroke="#ff7a00" stroke-width="2" filter="url(#section-research-direction_svg_glow)"/>
    <circle cx="936" cy="31" r="27" fill="none" stroke="#ff3131" stroke-width="1.5" opacity="0.7" filter="url(#section-research-direction_svg_softGlow)"/>

    <line x1="909" y1="31" x2="963" y2="31" stroke="#ff3131" stroke-width="1.5" opacity="0.6"/>
    <line x1="936" y1="4" x2="936" y2="58" stroke="#ff7a00" stroke-width="1.5" opacity="0.6"/>
    <line x1="916" y1="11" x2="956" y2="51" stroke="#ff3131" stroke-width="1.2" opacity="0.45"/>
    <line x1="916" y1="51" x2="956" y2="11" stroke="#ff7a00" stroke-width="1.2" opacity="0.45"/>
  </g>

  <!-- counter-rotating wheel segments -->
  <g class="section-research-direction_svg_spinCCW" opacity="0.15">
    <path d="M 916 31 A 20 20 0 0 1 936 11" fill="none" stroke="#ff3131" stroke-width="3" filter="url(#section-research-direction_svg_glow)"/>
    <path d="M 936 11 A 20 20 0 0 1 956 31" fill="none" stroke="#ff7a00" stroke-width="3" filter="url(#section-research-direction_svg_glow)"/>
    <path d="M 956 31 A 20 20 0 0 1 936 51" fill="none" stroke="#ff3131" stroke-width="3" filter="url(#section-research-direction_svg_glow)"/>
    <path d="M 936 51 A 20 20 0 0 1 916 31" fill="none" stroke="#ff7a00" stroke-width="3" filter="url(#section-research-direction_svg_glow)"/>
  </g>

  <!-- secondary left wheel -->
  <g class="section-research-direction_svg_spinLeft" opacity="0.15">
    <circle cx="216" cy="53" r="10" fill="none" stroke="#ff7a00" stroke-width="1.8" filter="url(#section-research-direction_svg_glow)"/>
    <circle cx="216" cy="53" r="6" fill="none" stroke="#ff3131" stroke-width="1.3" filter="url(#section-research-direction_svg_glow)"/>
    <line x1="206" y1="53" x2="226" y2="53" stroke="#ff7a00" stroke-width="1"/>
    <line x1="216" y1="43" x2="216" y2="63" stroke="#ff3131" stroke-width="1"/>
  </g>

  <!-- horizon / laser terrain -->
  <path class="section-research-direction_svg_pulse" d="M0 60 C 180 53 264 66 432 59 C 660 49 804 65 983 57 C 1104 53 1164 57 1200 51 V 76 H 0 Z"
        fill="#ff3131" opacity="0.10"/>

  <path class="section-research-direction_svg_dash" d="M0 63 C 216 54 312 69 480 61 C 696 50 864 67 1056 60 C 1140 56 1176 54 1200 53"
        fill="none" stroke="#ff3131" stroke-width="2.4" opacity="0.95" filter="url(#section-research-direction_svg_glow)"/>

  <line class="section-research-direction_svg_float" x1="96" y1="13" x2="1104" y2="13" stroke="#ff3131" stroke-width="1.8" opacity="0.65" filter="url(#section-research-direction_svg_glow)"/>
  <line class="section-research-direction_svg_float" x1="192" y1="54" x2="1008" y2="54" stroke="#ff7a00" stroke-width="1.6" opacity="0.55"/>


  <defs>
    <linearGradient id="bar" x1="0" y1="0" x2="1200" y2="0" gradientUnits="userSpaceOnUse">
      <stop offset="0" stop-color="#1a0400" stop-opacity="0.86"/>
      <stop offset="0.5" stop-color="#361000" stop-opacity="0.72"/>
      <stop offset="1" stop-color="#1a0400" stop-opacity="0.86"/>
    </linearGradient>

    <filter id="redGlow" x="-20%" y="-80%" width="140%" height="260%">
      <feGaussianBlur stdDeviation="3" result="blur"/>
      <feMerge>
        <feMergeNode in="blur"/>
        <feMergeNode in="SourceGraphic"/>
      </feMerge>
    </filter>

    <filter id="violetGlow" x="-20%" y="-80%" width="140%" height="260%">
      <feGaussianBlur stdDeviation="3" result="blur"/>
      <feMerge>
        <feMergeNode in="blur"/>
        <feMergeNode in="SourceGraphic"/>
      </feMerge>
    </filter>

    <filter id="softGlow" x="-20%" y="-80%" width="140%" height="260%">
      <feGaussianBlur stdDeviation="6" result="blur"/>
      <feMerge>
        <feMergeNode in="blur"/>
        <feMergeNode in="SourceGraphic"/>
      </feMerge>
    </filter>

    <filter id="softVioletGlow" x="-20%" y="-80%" width="140%" height="260%">
      <feGaussianBlur stdDeviation="6" result="blur"/>
      <feMerge>
        <feMergeNode in="blur"/>
        <feMergeNode in="SourceGraphic"/>
      </feMerge>
    </filter>
  </defs>

  <style>
    .edge {
      stroke-dasharray: 14 12;
      animation: dashMove 3.8s linear infinite;
    }

    .pulse {
      animation: pulseGlow 2.8s ease-in-out infinite alternate;
    }

    @keyframes dashMove {
      to { stroke-dashoffset: -120; }
    }

    @keyframes pulseGlow {
      0% { opacity: 0.68; }
      100% { opacity: 1; }
    }
  </style>

  <rect x="8" y="8" width="1184" height="60" rx="8" fill="url(#bar)" stroke="#ff7a00" stroke-width="2"/>
  <rect x="8" y="8" width="1184" height="60" rx="8" fill="none" stroke="#ff7a00" stroke-opacity="0.28" stroke-width="1"/>

  <path class="edge" d="M28 38H126" stroke="#ff7a00" stroke-width="3" filter="url(#softGlow)"/>
  <path class="edge" d="M1074 38H1172" stroke="#ff7a00" stroke-width="3" filter="url(#softGlow)"/>

  <g class="pulse">
    <g class="tron-ares-paths" fill="#ff1e1e" filter="url(#redGlow)">
  <path d="M322.655 35.25Q322.655 39.75 318.155 39.75H314.075L322.955 48.0H316.775L307.895 39.75H296.075V48.0H291.215V35.25ZM291.215 31.5V27.0H318.155Q322.655 27.0 322.655 31.5Z"/>
  <path d="M354.31499999999994 35.25V39.75H335.53499999999997V43.5H360.91499999999996V48.0H330.67499999999995V35.25ZM330.67499999999995 31.5V27.0H360.91499999999996V31.5Z"/>
  <path d="M372.98499999999996 39.75Q368.48499999999996 39.75 368.48499999999996 35.25H395.42499999999995Q399.92499999999995 35.25 399.92499999999995 39.75V43.5Q399.92499999999995 48.0 395.42499999999995 48.0H368.48499999999996V43.5H395.06499999999994V39.75ZM368.48499999999996 31.5Q368.48499999999996 27.0 372.98499999999996 27.0H399.92499999999995V31.5Z"/>
  <path d="M431.5849999999999 35.25V39.75H412.80499999999995V43.5H438.18499999999995V48.0H407.94499999999994V35.25ZM407.94499999999994 31.5V27.0H438.18499999999995V31.5Z"/>
  <path d="M460.3349999999999 27.0H465.25499999999994L481.36499999999995 48.0H475.30499999999995L472.42499999999995 44.1H457.48499999999996L460.81499999999994 39.6H469.09499999999997L462.79499999999996 31.080000000000002L450.28499999999997 48.0H444.22499999999997Z"/>
  <path d="M519.295 35.25Q519.295 39.75 514.795 39.75H510.715L519.595 48.0H513.415L504.53499999999997 39.75H492.715V48.0H487.85499999999996V35.25ZM487.85499999999996 31.5V27.0H514.795Q519.295 27.0 519.295 31.5Z"/>
  <path d="M532.175 43.5H557.555V48.0H531.8149999999999Q527.3149999999999 48.0 527.3149999999999 43.5V35.25H532.175ZM527.3149999999999 31.5Q527.3149999999999 27.0 531.8149999999999 27.0H557.555V31.5Z"/>
  <path d="M565.275 27.0H570.135V35.25H591.855V27.0H596.715V48.0H591.855V39.75H570.135V48.0H565.275Z"/>
  <path d="M623.735 31.5V27.0H650.6750000000001Q655.1750000000001 27.0 655.1750000000001 31.5V43.5Q655.1750000000001 48.0 650.6750000000001 48.0H623.735V35.25H628.595V43.5H650.315V31.5Z"/>
  <path d="M663.195 27.0H668.0550000000001V48.0H663.195Z"/>
  <path d="M707.5150000000001 35.25Q707.5150000000001 39.75 703.0150000000001 39.75H698.9350000000001L707.815 48.0H701.6350000000001L692.7550000000001 39.75H680.9350000000001V48.0H676.075V35.25ZM676.075 31.5V27.0H703.0150000000001Q707.5150000000001 27.0 707.5150000000001 31.5Z"/>
  <path d="M739.1750000000001 35.25V39.75H720.3950000000001V43.5H745.7750000000001V48.0H715.5350000000001V35.25ZM715.5350000000001 31.5V27.0H745.7750000000001V31.5Z"/>
  <path d="M758.205 43.5H783.585V48.0H757.845Q753.345 48.0 753.345 43.5V35.25H758.205ZM753.345 31.5Q753.345 27.0 757.845 27.0H783.585V31.5Z"/>
  <path d="M801.715 31.5H790.0150000000001V27.0H818.2750000000001V31.5H806.575V48.0H801.715Z"/>
  <path d="M825.0050000000001 27.0H829.8650000000001V48.0H825.0050000000001Z"/>
  <path d="M837.8850000000001 31.5Q837.8850000000001 27.0 842.3850000000001 27.0H864.8250000000002Q869.3250000000002 27.0 869.3250000000002 31.5V43.5Q869.3250000000002 48.0 864.8250000000002 48.0H842.3850000000001Q837.8850000000001 48.0 837.8850000000001 43.5V35.25H842.7450000000001V43.5H864.4650000000001V31.5Z"/>
  <path d="M877.3450000000001 26.85 903.9250000000002 40.32V27.0H908.7850000000002V48.15L882.2050000000002 34.95V48.0H877.3450000000001Z"/>
</g>
  </g>
</svg>