<svg width="1200" height="76" viewBox="0 0 1200 76" fill="none" xmlns="http://www.w3.org/2000/svg">
  
  <defs>
    <linearGradient id="section-featured-projects_svg_bg" x1="0" y1="0" x2="1200" y2="76" gradientUnits="userSpaceOnUse">
      <stop offset="0" stop-color="#020202"/>
      <stop offset="0.45" stop-color="#110000"/>
      <stop offset="0.78" stop-color="#2d0000"/>
      <stop offset="1" stop-color="#ff7a00"/>
    </linearGradient>

    <radialGradient id="section-featured-projects_svg_wheelGlow" cx="50%" cy="50%" r="50%">
      <stop offset="0" stop-color="#ff3131" stop-opacity="0.18"/>
      <stop offset="0.55" stop-color="#ff3131" stop-opacity="0.08"/>
      <stop offset="1" stop-color="#ff3131" stop-opacity="0"/>
    </radialGradient>

    <radialGradient id="section-featured-projects_svg_wheelGlow2" cx="50%" cy="50%" r="50%">
      <stop offset="0" stop-color="#ff7a00" stop-opacity="0.15"/>
      <stop offset="0.65" stop-color="#ff7a00" stop-opacity="0.06"/>
      <stop offset="1" stop-color="#ff7a00" stop-opacity="0"/>
    </radialGradient>

    <pattern id="section-featured-projects_svg_grid" width="52" height="52" patternUnits="userSpaceOnUse">
      <path d="M 52 0 L 0 0 0 52" fill="none" stroke="#5d0a0a" stroke-width="1" opacity="0.45"/>
    </pattern>

    <linearGradient id="section-featured-projects_svg_scanLine" x1="0" y1="0" x2="1200" y2="0" gradientUnits="userSpaceOnUse">
      <stop offset="0" stop-color="#ff3131" stop-opacity="0"/>
      <stop offset="0.5" stop-color="#ff3131" stop-opacity="0.95"/>
      <stop offset="1" stop-color="#ff3131" stop-opacity="0"/>
    </linearGradient>

    <filter id="section-featured-projects_svg_glow" x="-50%" y="-50%" width="200%" height="200%">
      <feGaussianBlur stdDeviation="4" result="blur"/>
      <feMerge>
        <feMergeNode in="blur"/>
        <feMergeNode in="SourceGraphic"/>
      </feMerge>
    </filter>

    <filter id="section-featured-projects_svg_softGlow" x="-50%" y="-50%" width="200%" height="200%">
      <feGaussianBlur stdDeviation="10" result="blur"/>
      <feMerge>
        <feMergeNode in="blur"/>
        <feMergeNode in="SourceGraphic"/>
      </feMerge>
    </filter>
  </defs>

  <style>
    .section-featured-projects_svg_scan {
      animation: section-featured-projects_svg_scanMove 4.8s linear infinite;
    }

    .section-featured-projects_svg_pulse {
      animation: section-featured-projects_svg_pulse 2.8s ease-in-out infinite alternate;
    }

    .section-featured-projects_svg_pulseSlow {
      animation: section-featured-projects_svg_pulseSlow 5.2s ease-in-out infinite alternate;
    }

    .section-featured-projects_svg_spinCW {
      transform-origin: 936px 31px;
      animation: section-featured-projects_svg_spinCW 16s linear infinite;
    }

    .section-featured-projects_svg_spinCCW {
      transform-origin: 936px 31px;
      animation: section-featured-projects_svg_spinCCW 22s linear infinite;
    }

    .section-featured-projects_svg_spinLeft {
      transform-origin: 216px 53px;
      animation: section-featured-projects_svg_spinLeft 18s linear infinite;
    }

    .section-featured-projects_svg_dash {
      stroke-dasharray: 14 12;
      animation: section-featured-projects_svg_dashMove 4s linear infinite;
    }

    .section-featured-projects_svg_float {
      animation: section-featured-projects_svg_float 6s ease-in-out infinite alternate;
    }

    @keyframes section-featured-projects_svg_scanMove {
      0%   { transform: translateY(-60px); opacity: 0; }
      12%  { opacity: 0.9; }
      50%  { opacity: 0.5; }
      100% { transform: translateY(156px); opacity: 0; }
    }

    @keyframes section-featured-projects_svg_pulse {
      0%   { opacity: 0.45; }
      100% { opacity: 1; }
    }

    @keyframes section-featured-projects_svg_pulseSlow {
      0%   { opacity: 0.18; }
      100% { opacity: 0.52; }
    }

    @keyframes section-featured-projects_svg_spinCW {
      from { transform: rotate(0deg); }
      to   { transform: rotate(360deg); }
    }

    @keyframes section-featured-projects_svg_spinCCW {
      from { transform: rotate(360deg); }
      to   { transform: rotate(0deg); }
    }

    @keyframes section-featured-projects_svg_spinLeft {
      from { transform: rotate(0deg); }
      to   { transform: rotate(-360deg); }
    }

    @keyframes section-featured-projects_svg_dashMove {
      to { stroke-dashoffset: -120; }
    }

    @keyframes section-featured-projects_svg_float {
      0%   { transform: translateX(-12px); opacity: 0.55; }
      100% { transform: translateX(12px); opacity: 0.95; }
    }
  </style>

  <rect width="1200" height="76" fill="url(#section-featured-projects_svg_bg)"/>
  <rect width="1200" height="76" fill="url(#section-featured-projects_svg_grid)" opacity="0.72"/>

  <rect class="section-featured-projects_svg_scan" x="0" y="0" width="1200" height="22" fill="url(#section-featured-projects_svg_scanLine)" opacity="0.75"/>

  <!-- ambient glow fields -->
  <circle class="section-featured-projects_svg_pulseSlow" cx="936" cy="31" r="27" fill="url(#section-featured-projects_svg_wheelGlow)"/>
  <circle class="section-featured-projects_svg_pulseSlow" cx="216" cy="53" r="10" fill="url(#section-featured-projects_svg_wheelGlow2)"/>

  <!-- main wheel -->
  <g class="section-featured-projects_svg_spinCW" opacity="0.15">
    <circle cx="936" cy="31" r="13" fill="none" stroke="#ff3131" stroke-width="2" filter="url(#section-featured-projects_svg_glow)"/>
    <circle cx="936" cy="31" r="20" fill="none" stroke="#ff7a00" stroke-width="2" filter="url(#section-featured-projects_svg_glow)"/>
    <circle cx="936" cy="31" r="27" fill="none" stroke="#ff3131" stroke-width="1.5" opacity="0.7" filter="url(#section-featured-projects_svg_softGlow)"/>

    <line x1="909" y1="31" x2="963" y2="31" stroke="#ff3131" stroke-width="1.5" opacity="0.6"/>
    <line x1="936" y1="4" x2="936" y2="58" stroke="#ff7a00" stroke-width="1.5" opacity="0.6"/>
    <line x1="916" y1="11" x2="956" y2="51" stroke="#ff3131" stroke-width="1.2" opacity="0.45"/>
    <line x1="916" y1="51" x2="956" y2="11" stroke="#ff7a00" stroke-width="1.2" opacity="0.45"/>
  </g>

  <!-- counter-rotating wheel segments -->
  <g class="section-featured-projects_svg_spinCCW" opacity="0.15">
    <path d="M 916 31 A 20 20 0 0 1 936 11" fill="none" stroke="#ff3131" stroke-width="3" filter="url(#section-featured-projects_svg_glow)"/>
    <path d="M 936 11 A 20 20 0 0 1 956 31" fill="none" stroke="#ff7a00" stroke-width="3" filter="url(#section-featured-projects_svg_glow)"/>
    <path d="M 956 31 A 20 20 0 0 1 936 51" fill="none" stroke="#ff3131" stroke-width="3" filter="url(#section-featured-projects_svg_glow)"/>
    <path d="M 936 51 A 20 20 0 0 1 916 31" fill="none" stroke="#ff7a00" stroke-width="3" filter="url(#section-featured-projects_svg_glow)"/>
  </g>

  <!-- secondary left wheel -->
  <g class="section-featured-projects_svg_spinLeft" opacity="0.15">
    <circle cx="216" cy="53" r="10" fill="none" stroke="#ff7a00" stroke-width="1.8" filter="url(#section-featured-projects_svg_glow)"/>
    <circle cx="216" cy="53" r="6" fill="none" stroke="#ff3131" stroke-width="1.3" filter="url(#section-featured-projects_svg_glow)"/>
    <line x1="206" y1="53" x2="226" y2="53" stroke="#ff7a00" stroke-width="1"/>
    <line x1="216" y1="43" x2="216" y2="63" stroke="#ff3131" stroke-width="1"/>
  </g>

  <!-- horizon / laser terrain -->
  <path class="section-featured-projects_svg_pulse" d="M0 60 C 180 53 264 66 432 59 C 660 49 804 65 983 57 C 1104 53 1164 57 1200 51 V 76 H 0 Z"
        fill="#ff3131" opacity="0.10"/>

  <path class="section-featured-projects_svg_dash" d="M0 63 C 216 54 312 69 480 61 C 696 50 864 67 1056 60 C 1140 56 1176 54 1200 53"
        fill="none" stroke="#ff3131" stroke-width="2.4" opacity="0.95" filter="url(#section-featured-projects_svg_glow)"/>

  <line class="section-featured-projects_svg_float" x1="96" y1="13" x2="1104" y2="13" stroke="#ff3131" stroke-width="1.8" opacity="0.65" filter="url(#section-featured-projects_svg_glow)"/>
  <line class="section-featured-projects_svg_float" x1="192" y1="54" x2="1008" y2="54" stroke="#ff7a00" stroke-width="1.6" opacity="0.55"/>


  <defs>
    <linearGradient id="bar" x1="0" y1="0" x2="1200" y2="0" gradientUnits="userSpaceOnUse">
      <stop offset="0" stop-color="#1a0400" stop-opacity="0.86"/>
      <stop offset="0.5" stop-color="#361000" stop-opacity="0.72"/>
      <stop offset="1" stop-color="#1a0400" stop-opacity="0.86"/>
    </linearGradient>

    <filter id="redGlow" x="-20%" y="-80%" width="140%" height="260%">
      <feGaussianBlur stdDeviation="3" result="blur"/>
      <feMerge>
        <feMergeNode in="blur"/>
        <feMergeNode in="SourceGraphic"/>
      </feMerge>
    </filter>

    <filter id="violetGlow" x="-20%" y="-80%" width="140%" height="260%">
      <feGaussianBlur stdDeviation="3" result="blur"/>
      <feMerge>
        <feMergeNode in="blur"/>
        <feMergeNode in="SourceGraphic"/>
      </feMerge>
    </filter>

    <filter id="softGlow" x="-20%" y="-80%" width="140%" height="260%">
      <feGaussianBlur stdDeviation="6" result="blur"/>
      <feMerge>
        <feMergeNode in="blur"/>
        <feMergeNode in="SourceGraphic"/>
      </feMerge>
    </filter>

    <filter id="softVioletGlow" x="-20%" y="-80%" width="140%" height="260%">
      <feGaussianBlur stdDeviation="6" result="blur"/>
      <feMerge>
        <feMergeNode in="blur"/>
        <feMergeNode in="SourceGraphic"/>
      </feMerge>
    </filter>
  </defs>

  <style>
    .edge {
      stroke-dasharray: 14 12;
      animation: dashMove 3.8s linear infinite;
    }

    .pulse {
      animation: pulseGlow 2.8s ease-in-out infinite alternate;
    }

    @keyframes dashMove {
      to { stroke-dashoffset: -120; }
    }

    @keyframes pulseGlow {
      0% { opacity: 0.68; }
      100% { opacity: 1; }
    }
  </style>

  <rect x="8" y="8" width="1184" height="60" rx="8" fill="url(#bar)" stroke="#ff7a00" stroke-width="2"/>
  <rect x="8" y="8" width="1184" height="60" rx="8" fill="none" stroke="#ff7a00" stroke-opacity="0.28" stroke-width="1"/>

  <path class="edge" d="M28 38H126" stroke="#ff7a00" stroke-width="3" filter="url(#softGlow)"/>
  <path class="edge" d="M1074 38H1172" stroke="#ff7a00" stroke-width="3" filter="url(#softGlow)"/>

  <g class="pulse">
    <g class="tron-ares-paths" fill="#ff1e1e" filter="url(#redGlow)">
  <path d="M313.765 35.25V39.75H294.985V48.0H290.125V35.25ZM290.125 31.5V27.0H320.365V31.5Z"/>
  <path d="M351.575 35.25V39.75H332.795V43.5H358.175V48.0H327.935V35.25ZM327.935 31.5V27.0H358.175V31.5Z"/>
  <path d="M380.325 27.0H385.245L401.355 48.0H395.295L392.415 44.1H377.475L380.805 39.6H389.08500000000004L382.785 31.080000000000002L370.27500000000003 48.0H364.21500000000003Z"/>
  <path d="M418.25500000000005 31.5H406.55500000000006V27.0H434.81500000000005V31.5H423.115V48.0H418.25500000000005Z"/>
  <path d="M472.985 27.0V43.5Q472.985 48.0 468.485 48.0H446.045Q441.545 48.0 441.545 43.5V27.0H446.40500000000003V43.5H468.125V27.0Z"/>
  <path d="M512.445 35.25Q512.445 39.75 507.945 39.75H503.865L512.745 48.0H506.565L497.685 39.75H485.865V48.0H481.005V35.25ZM481.005 31.5V27.0H507.945Q512.445 27.0 512.445 31.5Z"/>
  <path d="M544.105 35.25V39.75H525.325V43.5H550.705V48.0H520.465V35.25ZM520.465 31.5V27.0H550.705V31.5Z"/>
  <path d="M558.2750000000001 31.5V27.0H585.2150000000001Q589.7150000000001 27.0 589.7150000000001 31.5V43.5Q589.7150000000001 48.0 585.2150000000001 48.0H558.2750000000001V35.25H563.1350000000001V43.5H584.8550000000001V31.5Z"/>
  <path d="M648.1750000000002 35.25Q648.1750000000002 39.75 643.6750000000002 39.75H621.5950000000001V48.0H616.7350000000001V35.25ZM616.7350000000001 31.5V27.0H643.6750000000002Q648.1750000000002 27.0 648.1750000000002 31.5Z"/>
  <path d="M687.6350000000002 35.25Q687.6350000000002 39.75 683.1350000000002 39.75H679.0550000000002L687.9350000000002 48.0H681.7550000000002L672.8750000000002 39.75H661.0550000000002V48.0H656.1950000000002V35.25ZM656.1950000000002 31.5V27.0H683.1350000000002Q687.6350000000002 27.0 687.6350000000002 31.5Z"/>
  <path d="M695.6550000000002 31.5Q695.6550000000002 27.0 700.1550000000002 27.0H722.5950000000003Q727.0950000000003 27.0 727.0950000000003 31.5V43.5Q727.0950000000003 48.0 722.5950000000003 48.0H700.1550000000002Q695.6550000000002 48.0 695.6550000000002 43.5V35.25H700.5150000000002V43.5H722.2350000000002V31.5Z"/>
  <path d="M760.9450000000003 27.0V43.5Q760.9450000000003 48.0 756.4450000000003 48.0H734.3050000000003V43.5H756.0850000000003V27.0Z"/>
  <path d="M792.6050000000002 35.25V39.75H773.8250000000003V43.5H799.2050000000003V48.0H768.9650000000003V35.25ZM768.9650000000003 31.5V27.0H799.2050000000003V31.5Z"/>
  <path d="M811.6350000000003 43.5H837.0150000000003V48.0H811.2750000000003Q806.7750000000003 48.0 806.7750000000003 43.5V35.25H811.6350000000003ZM806.7750000000003 31.5Q806.7750000000003 27.0 811.2750000000003 27.0H837.0150000000003V31.5Z"/>
  <path d="M855.1450000000003 31.5H843.4450000000004V27.0H871.7050000000004V31.5H860.0050000000003V48.0H855.1450000000003Z"/>
  <path d="M882.9350000000004 39.75Q878.4350000000004 39.75 878.4350000000004 35.25H905.3750000000005Q909.8750000000005 35.25 909.8750000000005 39.75V43.5Q909.8750000000005 48.0 905.3750000000005 48.0H878.4350000000004V43.5H905.0150000000004V39.75ZM878.4350000000004 31.5Q878.4350000000004 27.0 882.9350000000004 27.0H909.8750000000005V31.5Z"/>
</g>
  </g>
</svg>